<svg xmlns="http://www.w3.org/2000/svg" viewBox="102.72000244140625 67.88999938964844 369.55999755859375 441.81000102996825"> <svg xmlns="http://www.w3.org/2000/svg" xmlns:xlink="http://www.w3.org/1999/xlink" version="1.1" id="Layer_1" x="179.86718310546874" y="137.88999938964844" viewBox="615.7000122070312 589.7000732421875 768.7002563476562 821.300537109375" xml:space="preserve" height="230" width="215.265625" preserveAspectRatio="xMinYMin" enable-background="new 0 0 2000 2000" style="overflow: visible;"><path class="st0" d="M774.6,1312.3c-0.5,0-0.9,0-1.4,0C773.7,1312.4,774.2,1312.4,774.6,1312.3z" style="fill: none;"></path><path class="st0" d="M895.7,1300.5c-0.1,0-0.3,0.2-0.5,0.4C895.4,1300.8,895.6,1300.7,895.7,1300.5z" style="fill: none;"></path><path class="st0" d="M895.3,1307.6c-0.1,0-0.2,0.1-0.3,0.2C895.1,1307.8,895.2,1307.7,895.3,1307.6z" style="fill: none;"></path><path class="st0" d="M895.3,1307.6c0.1-0.1,0.1-0.1,0.2-0.2C895.4,1307.4,895.4,1307.5,895.3,1307.6z" style="fill: none;"></path><path class="st0" d="M1048.5,745.1c-0.6,0-1,0.4-1.3,1c-1.1-0.8-2.1-1.5-2.2-1.6c-0.8,1,0.4,1.9,1.8,2.5c-0.5,1.6-0.6,3.9-0.6,4.9  c0.2,0,2.3-0.2,3-0.1c0.1-2-0.4-2.9-0.7-4.2c0.5,0.2,0.8,0.3,1.1,0.4c0.3,0.2,0.5,0.3,0.7,0.4c-0.4-0.3-1.1-0.8-1.9-1.4  C1048.4,746.5,1048.4,745.9,1048.5,745.1z" style="fill: none;"></path><path class="st0" d="M1049.2,751.8c0,0.1,0,0.3,0,0.4C1049.6,752,1049.5,751.9,1049.2,751.8z" style="fill: none;"></path><path class="st0" d="M1042.9,1008.7c0,0,0.1-0.1,0.1-0.1C1043,1008.6,1042.9,1008.7,1042.9,1008.7z" style="fill: none;"></path><path class="st0" d="M1068.9,1025.3c0.1-0.1,0.1-0.1,0.1-0.2C1068.7,1025,1068.8,1025.1,1068.9,1025.3z" style="fill: none;"></path><path class="st1" d="M713.5,717.6H766c0.4-1.7,1.5-3.1,1.8-2.7c-0.6,1.1-0.4,1.9-0.2,2.7H922l17.4-53.4h-54.1  c1.2,0.9,1.4,1.7-2.6,0.7c-0.3-0.1-0.7-0.2-1.1-0.4c-0.1-0.1-0.1-0.3-0.1-0.4H660v171.7h53.4L713.5,717.6z M848.3,707.3  c1.1,0,1.6-0.4,1.6-1.5c1.9,0.6,3.7,1.2,5.6,1.8C853.2,708.2,850.5,707.7,848.3,707.3z M921.6,669.8c1.2,1.5-0.6,3.6-2.2,2.1  C920.1,671.2,920.9,670.5,921.6,669.8z M918.5,678c0.7,0.8,0.7,1.3-0.1,1.6c-0.5,1.1-1.2,1.4-2.1,0.3  C917,679.3,917.8,678.6,918.5,678z M909,670.5c-0.2,1.9-3,2.1-3-0.1C907,670.4,908,670.5,909,670.5z M898.8,676.8  c0.3,1-0.1,1.5-0.9,1.3c-1,0.7-1.8,0.6-2-0.8C896.9,677.2,897.9,677,898.8,676.8z M885.7,708.1c-0.1-1.2-2.8,1-2.3-2.2  C884,701.4,887.2,707.6,885.7,708.1z M883.9,703.4c-1.8,2.3-3.9-1.4-5.5-2.4C878.9,700.9,883.1,702.9,883.9,703.4z M875.5,687.8  C879.5,678.2,879.8,696.7,875.5,687.8L875.5,687.8z M856.2,699.1c4.7-5.9,3.5,1.6,1.9,2.8c-1.1,1.6-2.6,2.6-2.6-0.5  c-0.1,0-0.1-0.1-0.2-0.1c-1.6-1.5-1.8-4.1-4-1.3c-2.5-3.7,2.9-1.8,4.9-0.3c0,0,0.1,0,0.1-0.1C856.3,699.4,856.2,699.3,856.2,699.1z   M852.7,683.6c-0.3-0.2-0.7-0.4-1-0.6C850.9,678.3,861.1,687.5,852.7,683.6z M851,668.3c-0.3-0.1-0.7-0.3-1-0.4  C848.5,663.3,859.8,671.1,851,668.3z M848.3,695.6c0-0.1,2.5-7.4-0.5-5.8C847.7,685.1,852.9,695.3,848.3,695.6z M839,712  c1.9,0.6,3.7,1.3,5.5,2c-2.3,0.5-4.9-0.2-7.1-0.5C838.5,713.5,839.1,713,839,712z M837.7,710.1c0-0.1-3.1,2.8-3.8,2.9  C832.7,711.4,836.5,708.4,837.7,710.1z M824.2,711.3c-2.5-1.6,1.4-0.6-1.1-2.4c1.2,0.2,2.3,0.8,3.1,1.7  C825.7,712.2,825.1,712.5,824.2,711.3z M824.7,669.4c0.1,0-4.1,0-4.7-0.4C820.1,667,825,667.3,824.7,669.4z M821.8,711.6  c-0.1-0.1-1.2-7.7-3.1-5C816.5,702.6,825.8,709.3,821.8,711.6z M820.8,709.1c0.1,0-4.1,0.5-4.8,0.2  C815.9,707.3,820.8,707,820.8,709.1z M809.7,709.3c-0.5,1.7-1.2,1.9-2,0.7c-2.5-1.7,1.4-0.6-1.1-2.4  C807.8,707.8,808.9,708.4,809.7,709.3z M768,705c1.8,0.4,3.9,4.8,3,6.6c-1.2-0.1-2.4-0.2-3.5,0C766.2,710.2,766.5,705.9,768,705z   M765.7,689.1c0.2,1-0.7,0.8-0.2,1.9c-3.9-1.9-5-5.9-7-9.3C762.8,681.1,761.3,688.7,765.7,689.1z M755.2,706.3  c1.7,2.3,3.9,0,5.1,3.3C757.8,711,754.3,706.5,755.2,706.3z M741.4,681.1c0.1,1-0.8,0.6-0.6,1.9c-3.4-2.6-3.9-6.7-5.3-10.4  C740,672.7,737.1,680,741.4,681.1z M664.2,834.3c0.5-0.6,0.8-5.2,1.9-4.7C668.3,831.7,666.2,832.9,664.2,834.3z M670.6,742.5  c-0.9-2.3,4-2.6,4.2-2.4C676.1,740.4,671.5,744.7,670.6,742.5z M681.8,759.3c-2.1,2.4-1.2-1.9-3.2-1.4  C680.7,755.6,682,757.9,681.8,759.3z M683.1,804.1c0.6-1.6,3.2-1.9,1.7,1.7C683.5,806.4,684.2,803.8,683.1,804.1z M685.1,806.4  c-0.1-1.7,2.2-3,2.2,0.9C686.3,808.3,686,805.7,685.1,806.4z M688.9,761.6c0.8-3,3.1-1.5,3.5-0.2  C691.5,764.5,690.5,760.2,688.9,761.6z M694.5,761.2c-2.2,2.3-1.1-2-3.1-1.5C693.6,757.4,694.8,759.9,694.5,761.2z M699,741.5  c-0.7-2.4,4.3-2.3,4.4-2C704.6,740,699.7,743.8,699,741.5z M706.2,825.2c-0.3,1.6-1.4,2-3.1,1.3c0.3-3.6,4.8-3.4,4.8,0.1  C707.6,825.7,707.1,825.2,706.2,825.2z M719.7,680.4c0.9,0.6,0,1,1.1,1.5c-4.1,1.2-7.7-0.9-11.5-2  C712.2,676.4,716.3,683.1,719.7,680.4z" style="fill: #AF9270;"></path><path class="st1" d="M848.3,695.6c4.6-0.3-0.6-10.5-0.5-5.8C850.8,688.2,848.3,695.5,848.3,695.6z" style="fill: #AF9270;"></path><path class="st2" d="M745.4,1160.7c-0.6,1-1.4,1.4-1.3-0.6c0-0.1,0-0.2,0-0.3l-16.9-12.2c0.1,0.7,0.2,1.3,0.2,1.8  c-1.5-0.1-2.6-2-2.9-3.8l-3.4-2.4c0,1.4-0.1,2.9-0.2,3.9c-1.7-0.5-2.4-3.5-2-5.5l-5.4-3.9v-27.9c-0.2-0.1-0.4-0.3-0.5-0.5  c0.1,0,0.3,0,0.5,0.1v-66.3c-0.1,0.1-0.3,0.2-0.5,0.4c0.2,0.4,0.2,0.8-0.1,1.2c-0.3,0.3-1.1,0.2-1.9,0.1c-0.5,0.3-0.8,0.7-0.9,1.1  c-0.4-0.3-0.6-0.7-0.5-1c-0.7-0.9-0.1-3.3,0.2-4.1c0.3,0.2,1.1,0.7,1.8,1.2c0.7-0.6,1.3-1.2,1.7-1.7c0.1,0.1,0.1,0.1,0.2,0.2v-56.1  c-1,1.1-3.1,3-3.2,2.2c0.2-0.6,0.4-1.2,0.5-1.8c-0.5-0.1-1-0.2-1.5-0.3c-1.1,0.1-1.6-0.3-1.5-1.1c-0.1-0.4,4.1,0.4,5.7,0.5v-0.2  l-36.9-26.8c-0.1,0.1-0.1,0.1-0.2,0.2c-2-1.8-1.3,1.8-3.3-0.2c0.9-0.6,0.9-1.3,1.2-1.6L660,944.5V1084c0.3-0.3,0.6-0.6,1-0.9  c1.4,1.3,1.1,4.3-1,4.8v76.9l94.5,68.5l17.4-53.4L745.4,1160.7z M710.2,1014.6c0,1-0.1,2-0.2,3c0,0,3.6-3.1,2.5,0  c-1.2-1-2.5,3.5-4,1.4C708.6,1018.4,709.6,1014.6,710.2,1014.6z M708.8,1026.6c-0.1,1-0.2,2-0.5,3c0,0,3.8-2.8,2.5,0.2  c-1.1-1.1-2.8,3.3-4.1,1.1C706.9,1030.2,708.2,1026.5,708.8,1026.6z M697.7,980.1c0.1,0.5,0.2,5.2-0.5,4.6c-0.2-0.6-0.6-1.1-1-1.6  c-0.4,0.3-0.8,0.6-1.2,0.8c-0.7,0.8-1.3,0.9-1.9,0.3C692.7,984,697.5,980.6,697.7,980.1z M695.3,1043.6c0.4,0.5,0.1,0.8-1.1,0.7  c-1.3-0.1,3-4.2-1-1.4c1.3-1.1,2.4-1.8,3.9-2.7C697.2,1040.8,694.5,1043.3,695.3,1043.6z M689,1097.5c0.6-0.8,1.2-1.5,1.8-2.3  C692.7,1096.7,690.6,1099.1,689,1097.5z M689.7,1048.5c0.4,0.4-0.3,4,0.5,3.8c0.7,0.1,0.5,0.6-0.4,1.2c-1.1,0.6,0-5.2-1.7-0.6  C688.5,1051.4,689,1050.1,689.7,1048.5z M667.6,1087.7c0.2,0.7,0.6,1.1,1.3,1.2c-0.4,0.5-0.7,1-1.1,1.5c0.4,0.3,4.8-3,5.1-3.1  c-0.5,2.4-3.9,3.3-5.5,4.7c-0.2-1.2-1.9-0.3-1.9-1C669.9,1088.8,664.8,1089.4,667.6,1087.7z M663.7,1065.9c4.9,0.8,0.4-1.7,3.7-1.5  c-0.3,0.7-0.1,1.2,0.4,1.7c-0.6,0.2-1.2,0.4-1.8,0.5c0.1,0.5,5.6,0.4,5.8,0.5c-1.8,1.7-5,0.4-7.1,0.6  C665.2,1066.7,663.3,1066.4,663.7,1065.9z M662.9,1120.9c-1.5-0.8-0.9-4.7-0.5-5.8c1.9,0.1,0.1,3,0.7,4.7c0-1.2,0.3-2.3,0.7-3.4  C663.7,1118,663.4,1119.5,662.9,1120.9z M668.3,1095.3c0.3,2.1-3.3,1.6-4.3,2C661.9,1096.5,667.8,1092.1,668.3,1095.3z   M666.1,1106.6c1.8-0.1,1.7-3.1,3.8-1.1c-1.3,0.9-2.6,1.8-4,2.6C665.4,1107.4,665.4,1106.9,666.1,1106.6z M669.5,1106.3  c1.8,0.4,2.6-2.5,4.1-0.1c-1.5,0.5-3,1-4.6,1.5C668.6,1106.9,668.8,1106.4,669.5,1106.3z M675.8,1175.1c-1.6-1.2-4.8-2.9-5.9-4.5  C671.3,1168.8,676.9,1173.6,675.8,1175.1z M677,1135.8c-2.1,1-3,0.2-2.7-2.3c0.8,0,1.6-0.1,2.3-0.2c-0.8,0.5-0.7,0.8,0.2,0.8  C675.4,1134.3,677.8,1135.4,677,1135.8z M681.5,1110.3c0.7-0.7,1.3-1.4,2-2.1C685.3,1109.7,683.1,1112,681.5,1110.3z M678.5,1080.2  c0.8-0.9-1-1.7-0.5-2.1c4.6,2,0.8-1.6,3.9-0.5c-0.4,0.6-0.4,1.2,0,1.8c-0.6,0-1.2,0.1-1.9,0.1c0,0.5,5.4,1.8,5.6,1.9  C683.5,1082.6,680.7,1080.5,678.5,1080.2z M688.9,1125.4c-0.5-0.3-0.6-0.7-0.2-1.2c1.5-0.8,0.1-3.5,2.9-2.8c-0.6,1-1.1,2.1-1.7,3.1  c1.2,0.9-1.3,2.8-1.5,4.4c0.5-1.1,1.2-2,2-2.8c-0.7,1.4-1.6,2.7-2.6,3.8C687,1128.9,688,1126.8,688.9,1125.4z M690.2,1183.3  c1.6-0.8,2.4-3,3.6-0.9C692.6,1184.3,691.4,1184.5,690.2,1183.3z M691.7,1083.6c0.9-0.4,1.8-0.8,2.7-1.2  C695.5,1084.5,692.5,1085.8,691.7,1083.6z M695.4,1044.6c4.1,1.4-1.1,4.8-0.5,6.4C692.4,1050.4,694.9,1046.3,695.4,1044.6z   M697.5,1124.9c1.7,1-1.3,2.7-1.6,4.5c0.5-1.1,1.2-2,2.2-2.7c-0.8,1.3-1.8,2.5-2.9,3.6C694.3,1128.8,696.6,1125.7,697.5,1124.9z   M697.5,1161.8c1.4-1.1,1.8-3.4,3.4-1.5C700,1162.4,698.9,1162.9,697.5,1161.8z M701.1,1155.7c0.5-1.7-0.5-3.8,1.9-3.2  C703.5,1154.7,702.9,1155.8,701.1,1155.7z M702.8,998.3c-0.5,0.1,2-5.3,2-5.8c0.4,0.4,2.7,4.5,1.8,4.3c-0.5-0.4-1-0.7-1.6-1  c-0.2,0.4-0.5,0.9-0.7,1.3C704.1,998.1,703.6,998.5,702.8,998.3z M708,1036.8c-0.3,0.6-2.3,0.6-2.9,1.3c-1.1-0.3-1.4-3.1-1.4-4.1  C704.7,1034.2,708.8,1035.1,708,1036.8z M705.6,1058.6c-2.3-0.8,0.7-4.7,1.3-6.3C710.8,1054.2,705.3,1056.9,705.6,1058.6z   M707.5,1173.7c-1.9,1.5-2.9,0.9-3.2-1.7c0.8-0.2,1.5-0.5,2.3-0.7c-0.7,0.6-0.6,0.9,0.4,0.8C705.6,1172.6,708.1,1173.1,707.5,1173.7  z M708.3,1138.9c-2.7-0.8-2.8-7.9-0.3-7.3C708.7,1133.2,708.5,1136.9,708.3,1138.9z M719.6,1147.6c2.7-1.1,3.9,0,4.7,2.4  C723.5,1150.3,721.2,1148.4,719.6,1147.6z M745.5,1174.1c0,0,2-2,2-3c0.5,0,2.7,0.9,2.6,2C749.1,1173.1,746.4,1174.6,745.5,1174.1z   M761.2,1196c-0.4-1,0.1-3.8,0.6-4C762.4,1193.6,762.9,1195.5,761.2,1196z M768.8,1184.6c-0.8,0,0.3-3.4,0.3-3.6  C772,1180.3,769.3,1185.1,768.8,1184.6z" style="fill: #556934;"></path><path class="st2" d="M680,1079.5c0.7,0,1.3-0.1,1.9-0.1c-0.4-0.6-0.4-1.2,0-1.8c-3.1-1.1,0.7,2.5-3.9,0.5c-0.5,0.4,1.3,1.2,0.5,2.1  c2.2,0.3,5,2.4,7.1,1.2C685.4,1081.3,680,1080,680,1079.5z" style="fill: #556934;"></path><path class="st2" d="M1102.2,1269.6c-0.4,0.4-0.7,0.7-1,0.8l-102.4,74.4l-106-77l-45.5,33l33.4,24.3c1.2-1.3,2.7-2.9,2.7-3  c-0.1-1.9-2.2-2.6-2.1-4.1c-1.2-1.1-1.2-4-1.7-5.6c-1-2.6,5.9-2.3,5.4-2c-0.7,0.3-1.3,0.5-2,0.8c1.3-0.2,2.4,4.1,2.4,5  c0,0.6,0.3,1.1,0.6,1.3c0.2,0.1,0.5,0.2,0.8,0.3c0.1,0,0.1,0,0.2,0c0-0.1,0.1-0.1,0.1-0.1c0,0.1,0,0.1,0,0.2c1.1,0,2.3-0.8,2.1-1.4  c-0.3-0.5-0.7-0.9-1.1-1.3c0.5-0.1,4.8,1.2,4.6-0.2c-0.2-1.4-4.1-0.7-4.7-0.3c-0.4-1.4,8.2-2.4,5.3,1.9c-1.9,2.8-4.1,2.3-6.2,1.5  c0,0.6-0.2,1.1-0.5,1.5c1.4,0.2,3.1,1,2.4,1.9c-10.3,1.3,1.7,3.5,1.6,5c0,0.5-0.1,1-0.3,1.4c1.1-0.8,2.2-1.2,2.1-1  c-0.5,0.6-0.9,1.1-1.4,1.7c0.7-0.5,2.4,0.9,3.6,2c0.5-1,1-1.7,1-1.5c-0.1,0.7-0.2,1.5-0.2,2.2c0.2-0.5,0.8-0.6,1.6-0.6  c-0.7-1.1-1.3-2.9-1.8-5.8c-0.3-1.9-2.1-13,3.1-10.2c0,0,0,0,0.1,0c-0.1-0.8-0.7-2.4-1.4-4.3c-0.5,1.9-2.6,3.1-3.9,0.9  c1.9-2.5,1.4,2.2,3.8-1.2c-0.2-0.7-0.4-1.4-0.6-2.1c-0.2,0.4-0.5,0.7-0.6,0.4c0.2-1.3,0.1-1.3-0.2-1c-0.1,0.1-0.1,0.1-0.2,0.2  c-0.1,0.1-0.2,0.2-0.3,0.2c0.1-0.1,0.2-0.2,0.3-0.2c0.1-0.1,0.1-0.2,0.2-0.2c0.2-0.2,0.3-0.4,0.5-0.6c-0.5-2.6-0.5-5,1.3-5.9  c0,0.3,0.1,0.6,0.1,0.9c0.1-0.4,0.1-0.7,0.2-1.1c0-0.5,0-0.9,0.2-1c-0.5-0.6-1.7,2.5-2.1,1.9c0.2-1,0.2-1.2,0-1.1  c-0.1,0.2-0.3,0.3-0.5,0.4l-0.1,0.1l0.1-0.1c0.2-0.2,0.4-0.4,0.5-0.4c1.5-1.6,2-4.2,2.6-6.6c-0.6,0.1-1.2,0.1-1.8,0.1v0.1  c0,0,0,0-0.1-0.1c-1.1,0-2.1-0.1-2.6,0c-0.1,0.1-0.1,1.3-0.3,2.8c0.1,0,0.2,0,0.3,0c0.5,1,0.4,1.3-0.2,1.1c-0.1,0-0.1,0-0.2,0  c-0.3,3.5-1,7.3-3.2,3c-5.1,8.9,6.5,6.8,6.2,9.4c-7.5,0-9.8,0-7.2-8.6c0.2-0.8,1-3.3,2.1-5.5c-0.3-0.7-0.6-1,0.6-1.7  c-0.1-1-0.3-1.7-0.5-2.4c-1.6,0.1-2.5,0.6-4.4,0.7c0.4-2.8,2.5-1.9,4.3-1.3c-0.1-0.5-0.2-1-0.2-1.7c1.7,0.2,2.1,1,2,2  c0.6-0.1,1-0.5,0.9-1.7c1-0.4,1.3-0.3,1.1,0.2c0,0.7,0.1,1.4,0.1,2.1c-1.3-0.2-1.9,0.2-2.4,0.3c-0.1,0.5-0.3,1-0.5,1.5  c1.2-1.7,2.7-2.5,4.1-0.5h0.1c0.7-2.2,0.6-12.8,5.1-12.9c-0.5,1.6-1,3.1-1.5,4.7c1.4,0.2,2.1,1.1,2.5,2.4c0.2-0.1,0.3-0.3,0.6-0.3  c0,0.5,0.1,0.9,0.1,1.4c0.3,0.1,0.7,0.2,1.1,0.3c-0.8,1.5-0.4,1.9-0.6,3.3c2.4-0.6,3.7,1.8,4.6,4.4c-0.4,2.5-2.9,3.7-4.9,4.6  c0,0,0,0,0,0.1c0,0,0,0-0.1,0c-0.5,0.2-0.9,0.4-1.3,0.5c-0.1,0.3-0.4,0.6-0.7,1c0,0.3,0,0.5-0.1,0.7c0.8,2.4,2.7,7.7,1.1,7.7  c-0.5,0.8-1.2,1.4-2,2c1.1,5.5,8.7,0.9,9.3,3.2c-6.3,2.7-8.6,3.6-9.7-2.9c-0.5,0.3-1.1,0.6-1.6,0.9v0.1h-0.1c-1,0.5-1.9,0.9-2.4,1.2  c-0.2,0.3,5.9,12.4-0.2,7.8c-0.2,2.6,0.3,4.1,1.1,4.9c0.3-0.9,2.2-2.5,3.8-2.7c0.8-2,2.6-4.1,4.1-1.2c1,1.8,0.8,3.2,0.1,4.3  c0.3,0.1,0.5,0.2,0.5,0.5c-0.6,0.3-1.1,0.5-1.6,0.8c-0.3,0.3-0.6,0.5-0.9,0.8c-0.2,0.3-0.4,0.4-0.7,0.6c-0.7,0.6-1.4,1.2-1.9,1.8  c0,0.2,0.1,0.3,0.1,0.4c0.4,0.1,0.6,0.3,0.6,0.7l-0.1,0.1c1.5,1.6,4.4-2.2,3.9-2.1c-0.1,0-1.2,1.1-1.2,0.8c-0.1-1,2.7-3.9,3.4-2.5  c-3.6,9.8,3.9,0.1,5.1,1c5,3.2,3.3,10.4-2.6,8.7c1.7-2.6,3.3-2.2,4.7-5.9c-0.5,0.9-1.1,1.4-2.1,1.4c-0.6-1.1-0.7-2.3-0.3-3.6  c-1.3,2.4-4.7,3.3-5.8,5.4c1.5,0.3,1.3,2.8,3.2,2.4c-0.7,2.5-1-0.5-2.4,1.6c0.2-0.8-1.7-5.8-1.8-5.9c-1.7-0.8-3.3,0.7-4.6-0.1  c-0.4,0.1-0.8,0.2-1.2,0.1c-1.2,1.1-1.4,1.7-1,1.9c1.1,0.7,6.2-0.8,6.6,0.1c0.8,1.8,0.8,3.5,0.3,4.9l93.5,67.9l31.2-22.7  c-0.1-0.1-0.2-0.2-0.3-0.3c-2,3-5.8,2-7.7,5.4c-3-1,7.7-6.5,9.1-7.4c-0.1,0.2,1.5-0.4,3.3-0.9l8.7-6.3c-3.1-4.6-1.3-1.8,1.6-6.4  c1,1.5,0.5,1.1-0.9,2.3c0.1,0.1,1.1,0.9,2.4,1.9l4.9-3.5c-3.6-3-1.2-1.2,0.3-6.1c1.4,1.1,0.7,0.9-0.3,2.4c0.1,0.1,1.6,0.6,3.2,1.3  l12.8-9.3c0-0.2,0-0.4,0.1-0.6c-3.5,0.5-5.3-3.1-9.1-2.2c-1-2.6,7.5,0.6,10.6,1.6l20.3-14.7c-0.2-0.9-0.1-1.7,0.4-2  c0.2,0.4,0.4,0.8,0.6,1.2l46.7-33.9c-0.3-0.7-0.2-1,0.6-2.2c0.3,0.2,0.7,0.6,1.2,0.9l12.1-8.8l-45.5-33L1102.2,1269.6z M885,1296.1  c-0.2,0.7-0.5,1.3-0.7,2c-2-1.3-2.8,0.3-3.1-1.8c-1.6-0.6-2.7-0.4-4.6-1.1c2.6-4.5,5.8,4.7,7.5,0.3  C885.1,1295.5,885.4,1295.7,885,1296.1z M900.2,1279.8c0-3.2,2.6,1.1,2.2-3.6C903.7,1277.9,902.8,1280.8,900.2,1279.8z   M961.1,1349.1c-1,1-1.4-1.2-1.8-1.4c-1.2,0.2-3.1,1-3-1.9C957,1346.1,962.3,1347.8,961.1,1349.1z M921.1,1334.1  c-0.3-0.7,2.7-4.2,2.9-3.5C924.1,1331.1,922.5,1335.2,921.1,1334.1z M926.4,1307.4c-1.9-1.3-4.9,1-4.3,3.1c0.3,1.1,1.1-0.8,1.9-0.4  c-1.1,3.5-1.5,1.8-3.2,3.6c-0.9,2.7,1.5,1,2.1,2.5c-0.5,0.8-3.5,2.6-4.6,1.5c0.3-0.5,0.2-4.7,0.9-4.8c-0.3-0.8-2.2,2.1-2.4,1.4  c0.4-1,0.4-1.2,0.3-1.1c-0.2,0.2-0.5,0.3-0.7,0.4c0.3-0.1,0.6-0.4,0.7-0.4c4.2-2.9,4-13.1,10.7-9.1  C926.7,1305.5,927.1,1306,926.4,1307.4z M942.2,1309.2c-0.3,0.5-4.3,2.2-4.5,0.5C938,1309,942.6,1308.5,942.2,1309.2z M941.5,1325.2  c0,0.6-2.5,4.1-3.6,2.8C937.8,1327.3,941.5,1324.5,941.5,1325.2z M941.9,1355.3c-1-2.3-4.6-2.7-3.8-5.8c0.7,0.8,1.5,1.6,2.2,2.4  C943.1,1353,943.6,1354.2,941.9,1355.3z M949.5,1361.9c-2.2-1.1-5.3,0.9-6.7-2.1c1.1,0.2,2.1,0.3,3.2,0.4  C949,1359.5,950.2,1360.1,949.5,1361.9z M952.9,1344.9c0.9,0,6.4-0.6,5.8,1c-0.5,1.3-1.7-0.5-2.3-0.6  C955.4,1346.1,954,1347.6,952.9,1344.9z M956.3,1356.1c1-0.3,2.1-0.5,3.2-0.7c2.5-1.8,3.7-1.6,3.8,0.4  C960.8,1355.5,958.5,1358.4,956.3,1356.1z M963.7,1375.5c1.9-1,2.5-2.6,3.1-1.9C968.5,1376.4,965.4,1378.2,963.7,1375.5z   M989.6,1382.2c1.1-1.8,1-3.5,1.8-3.1C994.3,1380.7,992.4,1383.7,989.6,1382.2z M995.6,1358.2c-0.8,1.1-1.5-1-2-1.2  c-1.2,0.3-3,1.4-3.2-1.5C991.2,1355.7,996.6,1356.8,995.6,1358.2z M1018.7,1358.2c1.6,2.9-1.6,4.5-3.1,1.7  C1017.5,1359,1018.3,1357.5,1018.7,1358.2z M1026.5,1374.3c-0.4,0-0.8,0.1-1.2,0.2c-2.4,1.9-6.4,5.6-7.6,3.3c-2.1,2.9-5.9,1.7-7.9,5  c-2.9-1.2,7.9-6.1,9.4-7c-0.1,0.2,3.4-0.9,6.1-1.4c0.4-0.3,0.7-0.5,0.9-0.7C1026.4,1374,1026.5,1374.2,1026.5,1374.3  c0.8-0.1,1.4-0.1,1.6,0.2C1027,1375.1,1026.9,1375.1,1026.5,1374.3z M1036.4,1364.2c-5.5-2.1-2.3-0.7-2.5-6.2c1.7,0.6,1,0.6,0.5,2.4  c0.2,0,3.3,0.1,6,0.4c0-0.1,0.1-0.1,0.1-0.2c0.3,0.1,0.6,0.2,0.9,0.3c1.8,0.3,3.1,0.7,2.4,1.3c-1-0.3-1.5-0.9-2.4-1.3  c-0.3,0-0.7-0.1-1-0.1c-0.7,1.2-5.8,1-5.5,2c0.8,0.9,1.9,1.5,3.1,1.8c1.2-0.6-0.8-1.3-0.6-2c3.7,0.7,8,0.4,8.7,3.8  C1043.2,1365.5,1039.2,1365.2,1036.4,1364.2z M1077.1,1339.5c0.5,2.4,1,4.9,1.6,7.3C1076.4,1347.1,1075.1,1340,1077.1,1339.5z   M1132.8,1298.1c-0.3,1.9-0.2,2.8-0.7,4.7c-1.5-0.4-3-0.8-4.6-1.3C1128,1299.5,1130.1,1297.6,1132.8,1298.1z M1125.1,1311.4  c0.8,1.7,1.3,2.4,1.9,4.3c-1.5,0.5-3,1-4.5,1.4C1121.9,1315.1,1122.6,1312.4,1125.1,1311.4z M1103.1,1287.9c1.1-1,2.1-2,3.2-3.1  C1107.8,1286.3,1104.5,1289.3,1103.1,1287.9z" style="fill: #556934;"></path><path class="st2" d="M1337.6,944.5l-53.4,38.8v154.2l-58.3,42.4l14.1,43.3c0.1,0.1,0.2,0.1,0.4,0.2c0.9,0.1,1.8,0.3,2.7,0.4  c-0.8,1.3-1.6,1.2-2.5,0.9l2.8,8.6l94.4-68.6v-13.6l-0.2,0V944.5z M1325.6,970.3c0.2,0.6-0.2,4-0.1,5.5c0.1,0.4,0.2,0.7,0.2,0.7  c-0.1,0-0.2-0.3-0.2-0.7c-0.3-1.3-1-3.7-1.5-3.2c-1.2,1.1,0.6,3.2,0.9,4.3C1319.7,977.7,1320.4,967.9,1325.6,970.3z M1253.7,1171.3  c1-3.2-0.8-0.3-1.3-1.7c1.5-2.6,1.9,0.5,3.5-0.1c1.1-5.8-2.3,0.2-3.6-2.4c0.5-1,5.4-4.2,2.6-4.4c-2.1-0.1,1.4-5.4,2.3-3.9  c-0.2,1.2-0.5,2.3-1.1,3.4c1.7-1.7-0.3,7.6,2.6,5.8C1257.3,1170,1255.7,1170.2,1253.7,1171.3z M1273.6,1181.3  c-0.5-0.4-1.1-3.7-1.1-1.4c-0.5-1.1-0.7-2.3-0.6-3.5C1271.7,1176,1275.5,1182.8,1273.6,1181.3z M1283.7,1195.1  c-0.5-0.4-1.3-3.7-1.2-1.3c-0.5-1.1-0.7-2.3-0.7-3.5C1281.6,1189.9,1285.7,1196.5,1283.7,1195.1z M1287.2,1160.3  c-0.2-0.6,1.1-3.7-0.2-1.8c0.3-1.2,0.7-2.3,1.5-3.2C1288.6,1154.8,1288,1162.5,1287.2,1160.3z M1291.9,1021.6  c-2,0.2-0.1-5.4-3.3-4.9c0.4-1.5,1-7,1.7-7c0,0.5,3.3-1.3,2.7,4.9c-1.1,0.9-1-1.8-2-1.3c-0.3,1.4-0.2,2.8,0.3,4.2  c0.7,0.5,1.9-2.6,2.6-2.7C1293.5,1017.6,1292.8,1017.3,1291.9,1021.6z M1298.8,1107.3c0,0.3,2.4-0.3,1.9,0.7c-0.8,0.4-3,0.7-3.8,0.3  c2.3-1.7,2.5-3.7,5.5-4.7C1304,1106.4,1298.8,1105.7,1298.8,1107.3z M1300.4,1035.4c-2,0.1,0.3-5.4-2.9-5.2c0.5-1.5,1.5-7,2.2-6.8  c0,0.5,3.4-1,2.3,5.1c-1.2,0.8-0.9-1.8-1.9-1.5c-0.4,1.4-0.4,2.8,0,4.2c0.6,0.6,2.1-2.4,2.8-2.5  C1302.4,1031.5,1301.8,1031.2,1300.4,1035.4z M1308.2,970.6c-0.1,0.2-1.6-2.7,0.2-2.2c1.7,0.5,2.4,4,3.5,5.3  c1.1-3.9,2.9-3.3,4.4-1.5c0,0,0,0,0,0c0,0,0,0,0,0c0.2,0.2,0.5,0.5,0.7,0.9c0,0,0,0,0,0c0,0,0,0,0,0c0.8,1.2,1.4,2.5,1.7,3.4  c1,4.4,2.3,5.7-3.1,7.1c-0.1-2.9,2.4-1.1,3.6-2.4c0.3-2.1-0.9-4.8-1.6-6.7c-0.2-0.6-0.4-1-0.6-1.4c0,0,0,0,0,0c0,0,0,0,0,0  c-0.2-0.3-0.5-0.7-0.7-0.9c0,0,0,0,0,0c0,0,0,0,0,0c-1.2-0.8-1.8,2.4-2.6,3.6c-0.9,1.5-4.3-5.5-4.4-6.3  C1308.7,969.4,1308.3,969.8,1308.2,970.6z M1319,991.4c-1.5,4.2-1,6.1-6.3,4.5c1.4-2.5,2.6,0.3,4.3-0.1c1.4-1.6,1.7-4.6,2.1-6.6  c0.1-0.6,0.2-1.1,0.2-1.5s-0.1-0.8-0.1-1.2c-0.7-1.2-3,1.2-4.3,1.8c-1.6,0.7-0.7-7-0.4-7.7c-0.6-0.5-1.2-0.4-1.6,0.3  c-0.2,0.1,0.1-3.2,1.4-1.8c1.2,1.4-0.1,4.7,0.3,6.3c3-2.8,4.2-1.2,4.6,1.1c0.1,0.2,0.2,0.6,0.1,1.2  C1319.4,989.1,1319.2,990.6,1319,991.4z M1313.7,985c0.1,0.6-0.6,3.9-0.7,5.5c0.1,0.4,0.1,0.7,0.1,0.7c-0.1-0.1-0.1-0.3-0.1-0.7  c-0.2-1.3-0.6-3.7-1.2-3.3c-1.3,1,0.2,3.2,0.4,4.3C1307.1,991.7,1308.8,982.1,1313.7,985z M1313.7,1111.4c-0.8,0.4-3,0.6-3.8,0.1  c2.3-1.6,2.7-3.6,5.8-4.3c1.4,2.9-3.7,1.8-3.8,3.4C1311.9,1110.9,1314.3,1110.5,1313.7,1111.4z M1318.2,1170.8  c-0.5,0.4-3.2,3.7-3.3,3c1-2.2,2.8-3.6,3.6-6.1c1.5,0.4,1.1,2.8,3,2.8C1319.2,1176.3,1317.8,1171.4,1318.2,1170.8z M1320.9,1115.3  C1317.3,1113.5,1323.5,1106.5,1320.9,1115.3L1320.9,1115.3z M1320.7,1055.3c-0.3,0.3,0.6-2.1,1.3-3.3c-1.2,0.8-2.6,1.4-3.2,0.2  c-0.5,0.1,2.5-2,3.6-2.3c0.1-0.2,0.2-0.4,0.3-0.6c0.1,0,0.1,0.1,0.2,0.1c-0.1-0.6-0.6-0.3,0.9-1.1c1.1,1.8-0.1,1.1-0.3,1.4  c0.5,0.3,0.3,0.5,0.1,0.6c0.1,0.2,0.2,0.3,0.3,0.6c-0.1,0-0.2,0.1-0.3,0.2c0.2,0.1,0.4,0.2,0.7,0.4  C1323.6,1052.6,1322.7,1056.3,1320.7,1055.3z M1323.1,1096.1c1.8-2.1,1.6-4.2,4.4-5.7c2.2,2.4-3.1,2.8-2.7,4.3  c0.1,0.3,2.3-0.8,2,0.2C1326.1,1095.5,1324,1096.3,1323.1,1096.1z M1328.9,1125.1c-0.2-0.1-0.5-0.2-0.6-0.4  c-0.2,0.7-0.6,1.6-1.3,2.9c-1.7-1.4-0.3-3.5,0.7-4.1C1327.2,1121.2,1330.4,1118,1328.9,1125.1z M1329.9,980.7c-0.1,0-0.2,0-0.3,0  c-1,0.4-3.2,1.3-3.5,1.5c-0.3-2,1.8-1.6,3.5-1.5C1330.1,980.5,1330.3,980.5,1329.9,980.7z M1330.9,967.1c-0.3-1-0.2-1.8,0.4-2.5  c0.6,3.4,0.7-0.2,1.7,0.9C1333.4,968.6,1331.8,965.9,1330.9,967.1z M1332.1,1055.6c-0.3,0.5,0.7-5.7,1.3-4.1c-0.7-1.8-1.4,0-0.7-2.2  c3,0.6-1,1.2,1.9,1.8C1334.2,1052.3,1334.2,1056.1,1332.1,1055.6z" style="fill: #556934;"></path><path class="st1" d="M1197.3,717.6c0.4-0.4,1.1-0.9,2-1.7c2.4-2.3,1.3,0,3.1,0.1c-0.8,0.6-1.6,1-2.3,1.5h40.6  c-1.1-1.6-1.9-3.9-1.1-5.1c2.6,1.6-1.3,0.7,1.3,2.3c-0.7,0.2,0.9,1.7,2.1,2.7h41.3v31.8c0.7,0.8,0.9,1.4,0,1.5V768  c1.5,2.3,1.9,5.2,0,3.8v64.1h53.4v-12.8c-0.6,1.1-1.1,1.9-1,2c-0.4-0.5,0.5-1.5-1.3,0.7c-0.2-0.1-0.3-0.2-0.4-0.3  c-0.2,0.1,3.9-3.3,1.3-3.5c0.1,0.1,0.8-0.3,1.5-0.9v-90.5c-0.7,0.5-1.3,0.8-1.4,0.8c0.5-0.9,0.9-1.7,1.4-2.6v-64.6h-3.8  c-0.3,1.6-3.9,2.9-4.5,1.2c0.9-0.4,1.9-0.8,2.9-1.2H1272c1.5,1.2-0.7,0.1-0.7,0.1c-0.1,0.4-0.4,0.7-0.7,1c1.5,1.3,3.2,2.2,4.9,3.4  c-2.3-1-1.6,2.2-2.9,3.4c-1,1.4-3.5,1.7-2.2-0.6c1.9-3.2-0.2-5.6-2.4-7.3h-209.1c0,0.2,0,0.5-0.1,0.8l16.9,52.6H1197.3z M1296,829.2  c0.1-0.9-0.6-4,1.4-3.2c-0.9,2.9,0.8,0.4,1.4,1.7C1297.7,830.1,1297,826.9,1296,829.2z M1297.6,808.4c0.2-0.6,0.4-1.1,0.6-1.7  c2.5,1,4.4,1,7,1.3c-0.3,1.1-0.9,1.5-2,1.2C1310.3,811.9,1299.2,808.6,1297.6,808.4z M1303.7,781.2c-0.5,1.1-0.6,2.2-0.1,3.4  c-0.3,0.2-1.4-5.4,0.2-5.9c0.6,3.9,1.2,1.1,3.2,2C1307.4,783.8,1304.6,781,1303.7,781.2z M1305.5,758.7c-0.2,1.2,0.1,2.2,0.8,3.2  c-0.2,0.2-2.9-4.8-1.5-5.7c1.7,3.6,1.5,0.7,3.7,1C1309.8,760,1306.3,758.2,1305.5,758.7z M1310,753.8c-1.5-1.1-11,2.1-4.5-2.4  c1.9-1.3,2.4-1.8,3.4-0.1c0.9,1.8,2.3-0.2,2.9,0.7C1312.1,753.1,1311.5,753.6,1310,753.8z M1324.4,785.9c0.5,0,1,0,1.5,0.1  C1327.3,785.6,1324.5,792.7,1324.4,785.9z M1328.4,746.4c1.1-1.1-2.2-1.4-2.4-1.5c0.5,0,3-3,3.6-1.1  C1330,745.1,1329.9,746.4,1328.4,746.4z M1324,694.5c-0.5,3.1-0.7,2.4,2.9,4c2,0.9,5.3,2.9,6.4,1c2.2,1.1-0.4,2.4-1.4,3.2  c-2.6,2.1-1.9,1.3-5.5,0c2.8,0.1,2.3,0.5,3.7-2.1c-3.5-1.9-6.3-2.2-9.3-5.1C1321.7,695,1322.7,693.7,1324,694.5z M1323.3,749.6  c2.2-0.5,2.9-0.8,3.2,1.2c0.1,2.1,2.2,0.7,2.4,1.7c-0.1,1.1-0.9,1.4-2.3,1C1325.6,752,1315.6,751.3,1323.3,749.6z M1317,771.8  C1317.1,771.8,1317.1,771.7,1317,771.8C1317.1,771.7,1317.1,771.8,1317,771.8c0.5-0.3,1.3-0.6,2.8-0.9c2.2-0.4,2.9-0.6,3.1,1.4  c0.1,2.1,2.2,0.8,2.3,1.8c-0.1,1.1-0.9,1.4-2.3,0.9c-0.2-0.4-1.1-0.8-2.1-1.2c0.2,1.7-2.5,0-3.3,0.4c-0.3,1.1-0.1,2.2,0.6,3.3  C1317.9,777.7,1315.8,772.9,1317,771.8z M1316.4,812.3C1320.5,817.6,1312.9,812.4,1316.4,812.3L1316.4,812.3z M1304.4,716.3  c-1.5,2.8-1.5,2.1,1.3,4.8c1.5,1.5,4,4.5,5.7,3.2c1.7,1.7-1.2,2.1-2.4,2.5c-3.2,1.1-2.2,0.5-5.1-1.9c2.6,1,2,1.3,4.2-0.6  c-2.6-3-5.1-4.2-6.9-8C1302.1,716,1303.4,715.1,1304.4,716.3z M1303.4,732.7c0.7,1.1,1.1,2.3-0.3,2.8c0.7-1.4-2.5-0.6-2.7-0.6  C1300.8,734.8,1302.3,731.1,1303.4,732.7z M1297.4,706.8c-0.6-1.4-0.8-2.8-0.8-4.3c-1.1,0.6-1.9,0.4-2.6-0.7c0.4,1.6,1.4,4-0.3,4.8  c-0.8-2.7,0.5-2.9-0.2-6c2.9-0.1,3-2,3.6,2.2c-0.2,1.2,0.1,2.2,0.9,3C1298.7,707,1298.4,707.3,1297.4,706.8z M1297.4,689.7  C1297.4,689.6,1297.5,689.6,1297.4,689.7C1297.5,689.6,1297.4,689.6,1297.4,689.7c-0.7,0.7-3.8,5.9-4.9,6.4c2.1-2.4-0.1-0.5-0.3-1.6  C1292.1,694.1,1296.5,690.3,1297.4,689.7z M1292.1,810.4C1291.7,817.1,1289.3,808.2,1292.1,810.4L1292.1,810.4z M1289.1,822.1  c-2,1.8-1.4-1.4-3.2,0.3c0.5-0.8,1-3.9,2.6-2.4C1286.5,822.3,1289.1,820.7,1289.1,822.1z M1288.2,781.7  C1285.2,787.8,1286.4,778.6,1288.2,781.7L1288.2,781.7z M1285.7,681.3c0.1,1,1.8,7,1.4,8.1c-0.4-3.2-0.4-0.2-1.4-0.9  C1285.4,688.3,1285.6,682.5,1285.7,681.3C1285.6,681.4,1285.6,681.3,1285.7,681.3z M1263,697.9c5.1-1.1,3.8-6.7,3.3-9.8  c1.4-2.3,1.8,2.1,2.7-1.2c0.1-0.6,0.2-1.1,0.3-1.3c-0.1,0.5-0.2,0.9-0.3,1.3c-0.4,2-1,5.8-0.8,5.9c0.9,0.7,1.4-2,1.3,1  c0.2,2.7-0.5,0-0.6,0c-0.4,0.2-0.8,0.2-1.2,0.2c0,2,0.6,3.9,0.8,5.8c-0.8-2.4-2.7,0.3-4.5,0.1C1262.3,700.1,1260.4,698.5,1263,697.9  z M1253.7,703.2c1.3-2.4,2,2.1,2.6-1.4c0.1-0.3,0.1-0.6,0.1-0.9c0-0.1,0-0.2,0.1-0.3c0,0,0,0.2-0.1,0.3c0,0.3-0.1,0.6-0.1,0.9  c-0.3,2.1-0.7,5.9-0.5,6c1,0.6,1.3-2.1,1.4,0.9c0.4,2.6-0.5,0-0.6,0c-0.4,0.2-0.8,0.2-1.2,0.2c0.2,2,0.8,3.8,1.1,5.8  c-0.9-2.4-2.7,0.4-4.5,0.4c-1.7,0.3-3.7-1.2-1.1-1.9C1255.9,711.8,1254.3,706.3,1253.7,703.2z M1248.9,684.2  c0.6,1.1,1.4,1.7,2.5,1.8c1.1,0.6,1.1,1,0,1.2c-1.3-0.7-2.4-1.7-3.2-3c-0.5,1.1-1.3,1.5-2.5,1c1.3,1,3.5,2.3,2.6,4.1  c-2.3-1.6-1.4-2.6-3.7-4.7C1247,682.8,1245.9,681.2,1248.9,684.2z M1234.1,702.9c3.3,0.7,0.8,1,1.7,2.6c-1.9-0.6-2.9-1.5-5.6-1.9  C1231,701.3,1231.8,702.3,1234.1,702.9z M1213.5,685.1c3.1-1.1,1.2,0.5,2.8,1.4c-2,0.5-3.2,0.3-5.8,1.3  C1210,685.4,1211.2,685.9,1213.5,685.1z M1200.5,683.5c0.6,1.8,0.1,2.6,0.3,4.8c1.9,2.3,1.2,3.2-2.2,3c-0.1-0.4-0.2-0.7-0.2-1.1  c0.6-1.4,0-3.1-0.1-1.2c-0.6-2.9,0.4-4.4-0.4-7.2c0.8,0.9,1.3,2,1.5,3.2C1199.3,684.1,1199.6,683.6,1200.5,683.5z M1193.8,681.8  c1.3-0.8,1.7-2.6,0.7-1.1c1.1-2.8,2.8-3.5,3.7-6.2c0.1,1.2-0.1,2.4-0.6,3.5c0.4-0.9,1-1.1,1.8-0.6c-0.5,1.8-1.4,2.2-2.5,4.1  c0.3,3-0.8,3.4-3.5,1.2C1193.5,682.5,1193.6,682.2,1193.8,681.8z M1192.9,708.4c1.1-1,1.4-2.8,0.5-1.2c0.6-2.9,2.3-3.8,2.8-6.6  c0.3,1.2,0.3,2.4,0,3.6c0.3-0.9,0.8-1.2,1.7-0.8c-0.3,1.9-1.1,2.4-1.9,4.4c0.8,2.9-0.3,3.5-3.3,1.7  C1192.7,709.1,1192.8,708.8,1192.9,708.4z M1169.9,675.5c0.5,1.1,1,2.2,1.5,3.3c-0.3,0.2,0.3,2.8-0.3,2.5c-0.4-1.9-1-3.7-1.8-5.5  C1169.5,675.6,1169.7,675.5,1169.9,675.5z M1143.1,692.9c0.8,1.3,2.9-0.8,2.1,2c-2-0.8-4.1-1.6-6.1-2.4  C1139.5,690.4,1140.9,690.5,1143.1,692.9z M1139.9,688.7c0.6,1.4,2.9-0.4,1.8,2.2c-1.9-1-3.8-2.1-5.8-3.1  C1136.6,685.8,1137.9,686.1,1139.9,688.7z M1127.1,714.6c0.2-0.8,0.1-2.4,0-2.2c0.6-0.3,6.5-2.6,6.6-2.2c-2.2,0.7,1,0,0.1,0.7  C1132.3,712.1,1128.8,713.9,1127.1,714.6c-0.1,0.4-0.3,0.5-0.5,0.2C1126.7,714.8,1126.9,714.7,1127.1,714.6z M1098.6,686.8  c0.3-0.8,0.6-2.4,0.4-2.2c0.6-0.1,6.9-1,7-0.6c-2.3,0.2,1,0.2,0,0.8C1104.3,685.6,1100.4,686.5,1098.6,686.8  c-0.2,0.3-0.4,0.5-0.5,0.1C1098.2,686.9,1098.4,686.9,1098.6,686.8z M1089.3,695.9c0.6-0.6,1.2-2.1,1-2c0.6,0.1,6.9,0.6,6.9,1.1  c-2.3-0.4,0.9,0.4-0.2,0.7C1095.1,696.1,1091.2,696.1,1089.3,695.9c-0.2,0.3-0.5,0.4-0.5-0.1  C1088.9,695.8,1089.1,695.8,1089.3,695.9z M1089.3,699.8c-1.1-1.8-1.2,0.4-2-2.4C1089.4,696.8,1091.8,698.9,1089.3,699.8z   M1089.1,703.7c-1.9-0.7-0.6,1.1-3.1-0.6C1087.3,701.4,1090.5,701.5,1089.1,703.7z M1070.4,675.8c0.7-1.5,3.4-7.3,4.8-7  c-0.1,0.4-1.5,7.2-1.3,7.1c0.3-0.1,0.5-0.2,0.7-0.4c0.2-0.4,0.5-0.9,0.7-1.4c0.9-2.5,0.7-6.6,3.4-5.1c-0.3,0.6-2.1,2.8-3.4,5.1  c-0.2,0.5-0.4,1-0.7,1.4c-0.6,1.2-0.9,2.3-0.5,3.1c-1.2,4.5-1.1,4.8-3.6,3.5C1066.3,679.8,1073.7,676.6,1070.4,675.8z M1071.6,694.5  c-0.2-1.7-1.1-8.1,0.2-8.5c0.1,0.4,2.6,6.9,2.8,6.7c0.2-0.2,0.3-0.5,0.3-0.8c-0.1-0.4-0.1-0.9-0.1-1.4c-0.6-2.6-3-6,0.1-6.2  c0.1,0.7-0.2,3.6-0.1,6.2c0.1,0.5,0.2,1,0.1,1.4c0.2,1.4,0.5,2.5,1.3,3c1.4,4.3,1.7,4.6-1.1,4.8  C1070.3,700,1074.8,693.3,1071.6,694.5z" style="fill: #AF9270;"></path><path class="st1" d="M664.3,906.5c-0.2-0.7-0.4-1.4-1-2c1.8-1.2,2.5-2.5,3.9-0.6c0.3,0.2-0.4,2.4-1,4l42.2,30.6  c-0.1-0.2-0.3-0.4-0.4-0.6c0.8-0.4,3.7,1,2.7,2.3l5.4,3.9c-0.1-0.5,0.1-1.1,0.1-1.8c0.9,0,2.3,0.2,2.3,1.1c-3.1,0-0.1,0.7-1.1,1.6  c0,0,0,0-0.1,0l1.2,0.9c-0.2-0.4-0.3-0.8-0.5-1.2c0.8-0.4,2.2-0.9,2.6,0c-2.8,1.4,0.3,0.6-0.2,1.9c-0.3,0.1-0.6,0.2-0.8,0.2l44,32  c0.3-0.5,0.6-1.1,0.9-1.6c2.3,1.2,2.2,2.5,1.7,3.4l21.9,15.9c0.2-0.1,0.3-0.2,0.5-0.3c0.2,0.3,0.3,0.6,0.4,0.9l37.8,27.5l61.2-44.5  c-1.9-1.9-3.6-4-2.1-5.2c0.4,0.9,2.1,2.6,3.5,4.2l37.6-27.3c-1.4-0.2-2.8-0.6-3.5-0.6c1.7-1.2,1.7-2.6,0-4.1c1.9-0.3,7.5-1,9.5,0.3  l66-47.9l62.6,45.5c0.1,0,0.3,0,0.3,0.2c0,0,0,0-0.1,0l109.3,79.4l213.3-155h-236.1c-0.3,0.4-0.7,0.8-0.8,0.7  c-0.1,0-0.1-0.3-0.1-0.7h-57.5l-3.2-9.9c0,0.6-0.1,1.2-0.2,1.5c-0.1-1.3-0.3-2.6-0.5-3.8l-1.4-4.3c-0.2-0.1-0.4-0.5-0.4-1  l-32.6-100.3c-0.7-0.6-1.2-1.3-0.9-1.8c0.1-0.1,0.2-0.2,0.2-0.3l-0.4-1.2c0,0-0.1,0-0.1-0.1l0,0.1c0,0-0.1-0.1-0.1-0.1  c-0.2-0.1-0.3-0.2-0.7-0.4c-0.3-0.1-0.6-0.2-1.1-0.4c0.3,1.3,0.8,2.2,0.7,4.2c0.3,0.1,0.4,0.2,0,0.4c0-0.1,0-0.3,0-0.4  c-0.7-0.1-2.8,0.1-3,0.1c0,0,0,0,0,0c0,0,0,0,0,0c0-1,0.1-3.3,0.6-4.9c-1.4-0.6-2.6-1.5-1.8-2.5c0.1,0.1,1.1,0.8,2.2,1.6  c0.3-0.6,0.7-1,1.3-1c-0.1,0.8-0.1,1.4-0.1,1.9c0.8,0.5,1.5,1.1,1.9,1.4c0,0,0.1,0,0.1,0.1l-18.8-57.7c0,0,0,0-0.1,0  c-1.2-1.6-2.4-1.4-3.6-3c1-0.4,1.7,1.4,2.8,1.6c1.2,0.2-3-6.7-3.4-2.6c-2.2-2.5,1.6-1.6,2-1.8c0.2,0.2,0.5,0.5,0.7,0.7l-31.2-96  l-45.5,139.9c2-1.7,0.4-3.5,2.6-4.7c0.9,1.7-0.2,2.7,2.6,2.3c-0.8,0.2-4.6,2.8-5.9,4.6l-0.4,1.4c0.1,0.1,0.1,0.1,0.3,0.2  c0.5,1.1-0.1,1.6-0.9,1.8l-20,61.6c0.1,0.7,0.4,1.2,0.9,1c0.9,0.2,0.9,1-0.1,2.2c-0.8,0.7-1.5,0.7-2,0.3L907.9,869  c0.7,0.1,1.2,0.1,1.5,0.1c-0.1,1.1,8.5,2.6,9.7,4.1c-4.5-1.1-9-2.3-13.6-3.6c-0.2,1.1-0.4,2.1-0.6,2.7c-1-0.4-1.7-1.6-2-2.9h-10.4  c0.4,0.7,0.6,1.9,1.3,2.5c-0.9,4.7-5.6,0.4-3.6-1.8c0.2-0.3,0.5-0.5,0.6-0.6H733.2c3,2.4-2.8,4.2-2.9,3.8c-1.1,1.1-2.2,2.2-3,3.5  c-1.5-1.4,4.8-5.7,5.9-7.3H616.5c-0.2,0.5-0.5,1.1-0.8,1.7l13.7,10c-0.2-0.3-0.3-0.6-0.6-0.8c1.8-1.3,2.5-2.5,3.9-0.7  c0.2,0.2-0.2,1.9-0.7,3.3L664.3,906.5z M1175.4,989.8c-1.5-0.5-7-1.4-6.4-3.5c1.3,0.5,5.3,2.9,6.3,1c0.2-0.2,1.6-3.1,1.5-3.2  C1177.5,984.8,1175.7,988.7,1175.4,989.8z M1172.9,970.9c-2.4-2,2.3-6.4,5.1-6.3C1174.8,966.6,1175,969.1,1172.9,970.9z   M1232.1,973.3c-0.1,0.6-0.9-1.2-1.1-0.9c0,1.6,0.2,3.1,0.6,4.6c-2.5,0.2-2.1-2.3-2.1-4.5C1230.8,972,1232.9,969.1,1232.1,973.3z   M1258.8,944.6c-1.2-0.9-1.9-2.1-1.8-3.5c5.2,0.7,1.2,1.8,4.2,3.9C1260.4,945.2,1259.6,945,1258.8,944.6z M1369.3,877  c1.3-1.1-1.5,2.5-3.7-1C1367.2,874.8,1368.2,875.6,1369.3,877z M1345.6,874.6c-0.7,2.1-0.7,4.6-3.1,3.8  C1343.5,876.4,1343.2,873.4,1345.6,874.6z M1339.5,898c0.1-0.5,0.4-0.8,1-0.8c0.2,1.1,0.4,2.2,0.6,3.3  C1339.2,900.5,1339.7,899.7,1339.5,898z M1339.5,878.8c-0.6-0.4-1.2-0.4-1.7,0.1C1335.8,878.8,1343.8,872.6,1339.5,878.8z   M1336.5,874c1.7-0.1-2.7,1.2-2.5-2.9C1336,871,1336.4,872.2,1336.5,874z M1337.8,882.9c0.8-1.6-0.5,2.8-3.8,0.6  C1335,881.7,1336.2,882,1337.8,882.9z M1289.5,876.6c0-0.1,0-0.1,0-0.2C1289.7,876.3,1289.7,876.4,1289.5,876.6  c0.2,1,1.2,2.5,0.2,3.4c-0.5-2.3-1.6,0.3-2.1-2.1C1287.8,878,1289.1,877,1289.5,876.6z M1280.1,871.9c0-0.7-0.3-1.2-1-1.4  C1278.2,868.7,1287.7,872.2,1280.1,871.9z M1279.6,943.8c-0.8,0-1.6-0.2-2.3-0.7c-1.1-1-1.6-2.3-1.3-3.7  C1281,940.7,1276.9,941.3,1279.6,943.8z M1278,916.6c0.3,1.6-1.9,8.3-4.1,7.3C1274.9,922.2,1276,915.3,1278,916.6z M1274.7,897.9  c0-0.1-0.1-0.1-0.1-0.2C1274.8,897.5,1274.8,897.6,1274.7,897.9c0.5,0.9,1.9,2,1.2,3.1c-1.1-1.9-1.4,0.8-2.6-1.3  C1273.5,899.7,1274.4,898.4,1274.7,897.9z M1271.5,896.9c-0.9,1.3-7.3,4.3-8.1,2.2C1265.3,898.5,1271,894.5,1271.5,896.9z   M1258.7,890.2c0.4,1,4.4,2.9,3.5,4.1c-1.5,1.9-2.9-4.5-2.3,1.6C1257.3,896.9,1256.3,890.7,1258.7,890.2z M1260.4,901.4  c2.4-1,5.2-2.1,5.4-0.5c-1,1.3-7.6,3.9-8.2,1.6c0.3-0.1,0.7-0.2,1.1-0.4c-1.3-0.7-2.6-1.8-2.7-2.4  C1256.4,899.8,1258.9,900.8,1260.4,901.4z M1253.7,939.2c-0.8,0-1.6-0.3-2.3-0.7c-1.1-1.1-1.5-2.3-1.3-3.8  C1255.1,936.2,1251,936.7,1253.7,939.2z M1251.8,925.6c0.3,2.5-5.2,1.1-5.9,0C1246.6,925.5,1251.7,925.8,1251.8,925.6z   M1245.7,905.5c1.2,2.2-4.4,3-5.4,2.3C1240.9,907.5,1245.7,905.8,1245.7,905.5z M1238,893.5c0.1-1.5,2.8,0.3,0.8-2.3  c1,0.4,1.9,0.2,2.7-0.6C1242.5,892.4,1239.6,894.9,1238,893.5z M1237.9,877.2c0.4,1,4.4,2.9,3.5,4.1c-1.5,1.9-2.9-4.5-2.3,1.6  C1236.4,883.9,1235.4,877.7,1237.9,877.2z M1229,948.5c-0.4-0.2,1.1-1.5,0.5-1.4c-0.7,0.2-1.4,0.4-2,0.6c-0.1-0.3,5.3-2.3,6.5-2.9  C1234.7,947.5,1231.2,947.8,1229,948.5z M1222.9,901.5c-0.4-0.2,1-1.6,0.4-1.5c-0.6,0.3-1.3,0.6-2,0.8c-0.1-0.2,5.1-2.8,6.1-3.5  C1228.5,899.8,1225.1,900.5,1222.9,901.5z M1223.1,876.7c0.5,2.6-3,2.5-5.3,3.1c-0.4-0.3,1.2-1.4,0.7-1.3c-0.7,0.2-1.4,0.3-2.1,0.4  C1216.4,878.5,1222,877.1,1223.1,876.7z M1211.3,941.5c-0.2,0.1,6.1,5.5,6.4,6.2c-1.3-0.4-2.5-0.7-3.8-0.9c-0.4,2.3-0.4,4.6-1.1,7  c-1.5-1.5,0.3-4.8-1-6.5C1211,946.3,1211,942.9,1211.3,941.5z M1206.9,897.1c0.6-1.7,0.1-3,0.6-4.7c0.7,0.2,1.7,6.7-2.3,5.4  C1205.9,894.6,1205.8,898,1206.9,897.1z M1200.9,992.9c0.4,3.5,2.3,0.6,2.5-0.9c2.4,0.3-1.1,4.4-1.3,5.8c-0.5,0-1-0.1-1.4-0.1  C1200.9,996.1,1200.7,994.6,1200.9,992.9z M1187.8,954.4c-1-3,5.2-4.2,7.7-2.7C1191.7,951.7,1190.5,953.9,1187.8,954.4z   M1193.7,886.4c0.1-1.9-0.6-3-0.6-4.7c0.8,0,3.3,6.1-0.9,5.8C1192.1,884.2,1192.9,887.5,1193.7,886.4z M1188,886.9  c-1.1-3.1,0.7-0.2,1.1-1.5c-0.5-1.8-1.6-2.6-2.1-4.2C1187.7,880.9,1192.1,885.7,1188,886.9z M1187.5,943.5c-0.4-1.2,0.7-4.4,1.4-5.6  c-0.2,0,4.2,7.1,4.2,7.8c-1.1-0.8-2.2-1.4-3.4-2c-1.1,2.1-1.8,4.3-3.2,6.3C1185.5,948.1,1188.3,945.5,1187.5,943.5z M1174.6,933.7  c-0.4-1.2,0.7-4.4,1.4-5.6c-0.2,0,4.1,7.1,4.1,7.9c-1.1-0.8-2.2-1.4-3.4-2c-1.2,2.1-1.9,4.3-3.3,6.3  C1172.5,938.3,1175.3,935.7,1174.6,933.7z M1174.2,964.5c-2.8,2.5-2.3,4.9-4,7.1C1167.5,969.9,1171.4,964.9,1174.2,964.5z   M1169.8,952.5c-1.1,0.9-0.5,2.8-2.6,2.3C1163.3,952.1,1166.9,951,1169.8,952.5z M1156.2,928c-1.3,0.7-0.9,2.7-3,1.9  C1149.8,926.6,1153.5,926,1156.2,928z M1150.9,990.6c-2.2,2.7,1.1,2.1,2.4,1.2c1.4,2-4,2.3-5.1,3.1c-0.3-0.4-0.6-0.8-0.9-1.1  C1148.5,992.9,1149.5,991.7,1150.9,990.6z M1148,988.9c-2.4,1.3-2.1-0.2-4.5,1.4C1142.2,988,1148.4,987.9,1148,988.9z M1140,948.3  c-1.4,0.5-1.3,2.5-3.3,1.3C1134,945.8,1137.7,945.9,1140,948.3z M1139.4,974.3c-1.2,0.3-1.7,0.2-2.1,0.1c-2.5,0.6,0,2.3,1.5,2.5  c-0.4,2.4-4.4-1.2-5.8-1.4c0-0.5,0.1-1,0.2-1.4c0.5,0.1,1,0.1,1.5,0.1C1134.8,972.4,1140.1,973.5,1139.4,974.3z M1132.7,896.9  c2-0.2,2.2,1,0.6,3.4C1131.4,899.8,1131.4,898.4,1132.7,896.9z M1128,883.2c1.6,1.1,1,2.1-1.7,3C1125,884.6,1126,883.5,1128,883.2z   M1119.4,969.8c0.8,3.1,0.5,1.7-0.8,2.5C1117.6,972.8,1117.4,970.2,1119.4,969.8z M1115.5,980.2c-0.6-0.8-1.2-1.6-1.8-2.4  C1115.2,976.8,1116.9,979.1,1115.5,980.2z M1110.5,919.1c1.8-0.9,2.4,0.1,1.9,2.9C1110.4,922.4,1109.9,921,1110.5,919.1z   M1107.4,947.4c0.3,2-1.5,2.3-3.3,2.4c-0.1-0.7-0.1-1.4-0.2-2C1105.1,948,1106.3,947.8,1107.4,947.4z M1095.4,949.1  c-0.2-0.7-0.3-1.4-0.5-2c1.2,0,2.3-0.3,3.4-0.9C1098.9,948.1,1097.2,948.7,1095.4,949.1z M1097.5,921.3c1,1.8-0.6,2.7-2.2,3.4  c-0.3-0.6-0.6-1.2-1-1.8C1095.5,922.6,1096.6,922.1,1097.5,921.3z M1054.1,870c2.6-0.6,2,2.2,2.3,4.3  C1055.4,875.4,1054.1,870.2,1054.1,870z M1073.8,924.7c-2.6-1,2.4-10.1,3-10.9c0.1,0.4,0.4,0.8,0.6,1.1  C1076.1,917.1,1076,923.7,1073.8,924.7z M1087.4,960.6c-0.9,0.6-1.3-2,0.6-2.6C1089.1,961.1,1088.7,959.7,1087.4,960.6z   M1088.3,928.9c0,0.4,0.1,0.8,0.4,1.2c-2,1.8-3.8,8.2-6.2,8.5C1080.2,936.9,1087.4,929.4,1088.3,928.9z M1083.5,863.2  C1086.2,867.5,1078.7,866.2,1083.5,863.2L1083.5,863.2z M1080.5,953.5c0.7,3.2,0.5,1.8-0.8,2.5  C1078.7,956.4,1078.6,953.8,1080.5,953.5z M1078.5,892.5C1079.9,897.4,1073.1,894.1,1078.5,892.5L1078.5,892.5z M1076.2,878.3  C1077.6,883.2,1070.7,880,1076.2,878.3L1076.2,878.3z M1074.1,860.4c-1,2.8,3.9,0.6,0.6,4c-1.4-1.1-1.8-2.9-2.5-2.5  C1072.8,861.3,1073.4,860.8,1074.1,860.4z M1070.3,918.5c0.3,0.3,0.7,0.4,1.1,0.5c0,2.6,3.5,8.3,2.1,10.3  C1070.7,929.8,1070.1,919.5,1070.3,918.5z M1068.7,865.5c-1.9,2.2,3.4,1.9-0.8,4c-0.9-1.5-0.7-3.3-1.5-3.2  C1067.2,865.9,1067.9,865.7,1068.7,865.5z M1064.4,900.3c0.1-0.7,0.6-0.9,1.4-0.5c-1.3,1.5,2.8,3.1-0.1,3.8c2.6,1,5.3-0.4,3.9,3.1  c-2.9-0.9-4.3-3.4-7.4-3.7C1064.6,903.1,1063.5,901.4,1064.4,900.3z M1059.5,920c0.5-0.6,1-0.6,1.5,0.2c-1.8,0.8,1.1,4.1-1.7,3.4  c0.9,0.9,2,1.4,2.6,1.9c1.1-1,2.2-1.8,2.4-1.2c-0.4,0.2-1.1,1-1.9,1.9c0.1,0.5-0.1,1-1.1,1.9c-0.1-0.1-0.3-0.3-0.4-0.4  c-0.6,0.5-1.2,0.7-1.5,0.1c0,0,0.3-0.4,0.8-0.9c-1.3-1.9-1.8-4-3.9-5.4C1058.5,922.6,1058.2,920.6,1059.5,920z M1053.7,867.1  c-1.4-0.3,2.6-3.8,2.8-4C1058.1,865.2,1055.4,865.8,1053.7,867.1z M1054.1,848.2c0.1,2.9,3.8-1,2.1,3.4c-1.7-0.5-2.8-1.9-3.3-1.3  C1053.2,849.5,1053.6,848.8,1054.1,848.2z M1028.4,842.2c-1.2-2.5,5.9-0.1,4.5-4.4C1037.2,835.6,1029.3,845.1,1028.4,842.2z   M1034.9,876c-0.5-0.2-1-0.4-1.4-0.6c0.3-1.4,1-2.3,2.2-2.8C1037.7,873,1035.1,875.5,1034.9,876z M1032.2,871c2.1-0.7,0.5-1.9,1-3.3  c-0.1-0.7,0.3-1.1,1.2-1c-0.7,1.9,3.7,1.9,1.3,3.6c2.7,0,4.8-2.2,4.8,1.5C1037.3,872.1,1035.1,870.2,1032.2,871z M1038.2,854.5  c-0.5,0.1-1,0.1-1.5,0.2c-0.5-1.3-0.3-2.5,0.5-3.5C1039,850.5,1038.1,854,1038.2,854.5z M1036.7,849.4c-1.5-0.3,2.5-3.9,2.7-4.1  C1041.2,847.5,1038.4,848.1,1036.7,849.4z M1035.3,842.3c0.4-0.3,0.9-0.5,1.4-0.7c0.4,0.7,0.8,1.3,1.3,1.9  C1035.9,844.7,1036.7,844.9,1035.3,842.3z M1041,911.1c0,0,5.6-2.9,5.7-1.7C1045.6,909.4,1041.3,913.1,1041,911.1z M1051,855.3  c-2.5,1.1,0-5.9-4.4-4.6C1044.6,846.4,1053.9,854.5,1051,855.3z M1045,759.7c-0.2,3.3,1.3,3.7,1.3,6.7c0.3,0,0.4,0.1,0,0.4  c0-0.1,0-0.3,0-0.4c-0.8-0.1-3.2,0.4-2.9,0.3C1043.3,765,1042.9,760,1045,759.7z M1042.7,886c0.5,0.1,1,0.3,1.5,0.5  c-0.2,0.8-0.3,1.5-0.4,2.3C1041.4,888.3,1041.9,888.9,1042.7,886z M1041.2,835.8c-2.4,1.3-0.4-5.8-4.7-4.3  C1034.2,827.4,1044.1,834.8,1041.2,835.8z M1039.8,826.3c0.3,0.7,0.7,1.4,1.1,2.1c-2.2,0.9-1.4,1.2-2.5-1.6  C1038.8,826.6,1039.3,826.4,1039.8,826.3z M1037.5,810.1c-0.1-0.1-0.2-0.2-0.3-0.3c-0.6,0.5-2,2.6-1.9,2.3c-1.2-1.2-5-4.6-3.7-6.2  c2.1,2.5,3.6,1.8,5.6,3.9C1037.4,809.6,1037.6,809.7,1037.5,810.1z M1031.9,718.3c0.1-0.2,0.2-0.4,0.2-0.5c-0.3-0.6-1.9-1-0.9-1.9  c1.8-1.8,1.7,0.1,0.9,1.9C1032.2,718,1032.2,718.1,1031.9,718.3C1031.9,718.3,1031.9,718.3,1031.9,718.3  C1031.9,718.3,1031.9,718.3,1031.9,718.3c-0.8,1.8-2.1,3.3-2.2,0.5C1029.5,717.7,1030.3,717.5,1031.9,718.3z M1033,754.2  c-1.4,0.6-5.4,3-5.8,0.7C1027.7,755,1037.4,753.1,1033,754.2z M957,878.4c-0.6,0.3-3.3,2.6-3.6,0.9c-3.1,2.1,0.2,2.2-1.7,3.7  c-3.6-4.8,3.7-5.2,6.1-7.7C957.6,875.5,954.6,878.6,957,878.4z M965.9,853.5c-0.7-0.5-1.1-1.1-1.4-1.9c-1.2-0.5-1.9,1.2-2.7,0.2  C960,839.3,969.9,854.1,965.9,853.5z M966.9,824.7c-2.3,4.5-7.1-7.2-3.6-5.6c0.7,0.3,1.8,4.6,2.9,3.5  C967.1,822.5,967.4,823.2,966.9,824.7z M975.8,884.9c-5.8-1.6-0.4-6.4,0-9.9c0,0.4-0.5,4.6,1.3,3c-0.3,0.6-1,4.1-2.2,2.9  C973.8,884.5,976.4,882.6,975.8,884.9z M979.9,790.5c-0.7-0.2-1.1,0-1.3,0.6c-1.4-0.3-1.9-1-3.4-1.3c-0.8-1.9,6-0.2,4.1-2.5  C982.7,788.9,977.3,789.2,979.9,790.5z M982.4,726.9c1.6,3.4-3.5,2.1-4.6,2c0-0.7,0-7.6-1.2-6.7c-0.3,0.2-1,2-1.6,1.7  c-1.3-0.7,1.8-3.4,1.9-4.4c1.6-1.3,2.5,7.2,2.1,8.4C980.3,725.3,980.5,726.8,982.4,726.9z M980.5,806.6c-1-1.6,6-1.1,3.7-3.1  c3.6,1-1.6,2.1,1.1,3c-0.7-0.1-1.1,0.2-1.2,0.8C982.7,807.2,982.1,806.5,980.5,806.6z M988.6,746.9c-0.1,0.3,0.3,3.3-0.4,4.8  c0.5-0.4,1-0.6,1.3-0.5c-0.3,0.2-1.8,5-3.9,4.4c-0.7-0.3,0.3-1.8,1.5-3C985.9,752.6,987.4,747.4,988.6,746.9z M984.7,822.6  c-0.4-0.7-0.8-1.4-1.1-2.1C985,817.5,988.1,825.4,984.7,822.6z M987.6,871.5c1-0.3-3.1,6.3-3.1,6.4c-0.8,0,0.6-3.2,1.9-5.1  c-1.1,1.3-2.1,2.5-2.1,2.6c-1-0.2,2.6-5.5,4.1-5.8c0.4-0.1-0.2,1-1.1,2.1C987.4,871.6,987.5,871.5,987.6,871.5z M988.4,829.4  c-1.1-1.2,4-0.8,5.1,0c0.1-1.3,0.3-4.3,0.7-4.1c-0.2,4.6,0.5,4.9-3.5,5.3C989.1,830.8,988.1,833.2,988.4,829.4z M995.1,886.1  c1,2.6,2,0,2.8,2.2c-2.6,0.9-3.6,0-4.1-1.6c-0.3,0.1-0.5,0.2-0.5,0.2c-0.2-0.1,0-0.4,0.3-0.7c-0.5-1.9-0.5-4.4-1.3-6  c0.2,0.3,2.3,4.1,2.8,1.7c0,0.4,0.7,2,0.7,2.9c1.5-0.8,3.2-1.4,3.9-1.2C1000.2,883.7,997.2,885.2,995.1,886.1z M1018.2,805.7  c-1.7,0.3,1.4-3.8,2.6-4.4c-1-0.7-3.5-2.5-3.1-2.7c3.8,2.5,4.5,2.1,2.7,5.8C1019.7,805.9,1021.2,807.9,1018.2,805.7z M1025.4,885.5  c-0.6,0.5-2.2-1.7-2.5-2c0.2,1,0.7,1.8,1.5,2.6c-3.2-0.8-2.8-6.3-3.4-7.5c2.2,0.4,1.1,4.4,3.4,4.9  C1024.7,884.2,1025,884.8,1025.4,885.5z M1023,691.7c0.1-0.2,0.2-0.3,0.2-0.5c-0.2-0.6-1.8-1.1-0.9-2c1.9-1.7,1.7,0.2,0.9,2  C1023.3,691.3,1023.2,691.5,1023,691.7c-0.9,1.8-2.2,3.2-2.3,0.4C1020.6,691,1021.4,690.8,1023,691.7z M1020.6,712.9  c0,0.4,2.1,4.9,0.2,5.9C1019.5,719.1,1019.5,713.7,1020.6,712.9z M1022.4,739.8c0.8-0.8,1.3-0.7,1.4,0.3c-1.7,0.7-4.8,3.4-5.9,1.3  C1018.6,741.2,1023.6,741.4,1022.4,739.8z M1022.2,778.4c-1.3,0.9-4.7,3.9-5.5,1.8C1017.1,780.1,1026.3,776.5,1022.2,778.4z   M1015.8,809.3c-0.7-0.4-1.4-0.9-2-1.3C1013.6,804.8,1020.1,810.2,1015.8,809.3z M1012,881.4c-0.2,0.7-0.3,1.5-0.5,2.3  c-0.8,0-0.6-2.7-0.6-3.2c-0.5,0.9-0.6,1.9-0.5,3c-2-2.6,1.9-6.6,2.3-7.9C1014,877.3,1010.6,879.6,1012,881.4z M1009.7,757  c1.2,0.2,1.4,0.6,0.6,1.3c-1.6-0.9-5.6-1.8-4.6-3.9C1006.4,754.8,1009.2,758.9,1009.7,757z M1005.2,850.9c-0.5-0.1-1-0.2-1.5-0.3  c0-1.4,0.5-2.5,1.6-3.2C1007.2,847.4,1005.3,850.4,1005.2,850.9z M1006.3,729.7c1.1-0.5,1.5-0.2,1.2,0.8c-1.8,0.1-5.7,1.5-5.9-0.9  C1002.3,729.6,1006.9,731.5,1006.3,729.7z M1005.3,887.7c0.5,0.6,0.9,1.2,1.4,1.9c-0.5,0.6-2.4-1.3-2.8-1.6c0.4,0.9,1,1.7,1.9,2.3  c-3.3-0.3-3.7-5.8-4.5-7C1003.6,883.4,1003,887.6,1005.3,887.7z M999,790.3c1.3,0-0.7,2.8,1.6,2c-0.7,0.4-0.8,0.8-0.4,1.4  c-1.2,0.8-2.1,0.7-3.2,1.7c-1.5-0.5,1.5-2.8,1.7-4c-0.2,0-0.6-0.2-1.1-0.6c-0.4-0.7-0.7-1.4-1.1-2.1  C997.3,786.8,998.7,788.9,999,790.3z M1000.8,815.6c-0.2-1.3-0.6-4.3-0.1-4.2c0.7,4.5,1.4,4.7-2.4,5.9c-1.5,0.5-2,3-2.4-0.7  C994.5,815.7,999.6,815.2,1000.8,815.6z M994.9,663.2c-1.1-0.7-2.2-1.3-3.4-1.8C992.5,659.9,996.1,661.3,994.9,663.2z M989.1,661.1  c-1.1-0.7-2.2-1.3-3.4-1.9C986.8,657.7,990.3,659.2,989.1,661.1z M982.3,697.4c0,0,3.9,5.7,3.9,4.9c0.3,3.3,1.9,1.1,3.4,2.7  c1.5,0.5-1.5,4-1.9,3.1c-0.2,0.8-0.4,1.6-0.6,2.3c0,0,0,0.1,0,0c0,0,0,0,0,0c0-0.7-1.1-10.9-3.7-6.8  C982.8,703.6,981.8,697.9,982.3,697.4z M981.6,714.8c1.5,1.2-1.6,4-2.1,5c-0.6-0.3-1.2-0.7-1.8-1  C977.6,718.9,980.4,713.8,981.6,714.8z M971.1,715.4c0.8-0.5,8.2-7.3,3.4-7c-0.2-0.5,3.8-4.7,4.4-4.6c0,0-2.3,6.5-1.7,6  c-2.5,2.2,0.2,2.2-0.2,4.4c0.5,1.5-4.1,1.1-3.7,0.3C972.6,714.8,971.9,715.1,971.1,715.4L971.1,715.4L971.1,715.4z M973.2,738.8  c1.4,0.8,2.8-0.4,4.1,1.3c-1.6,1.2-2.7,0.2-2,2.9c0-0.1-0.1-0.1-0.1-0.2c0.2,0.6,0.4,1.2,0.4,1.4c0.3-2.8,1-1.5,2.8-2  c2.6,2.7-2.6,3.1-3.6,3.4c-0.3-0.5-2.6-6.9-3.4-5.8c-0.2,0.3-0.3,2.2-0.9,2.1c-1.1-0.1-0.3-2.1,0.1-3.5c-1.2-0.9-2.1-1.2-2.3-0.5  c-2.4,1.6-2.3-3.3-1.3-3.4c1,1.2,2.7,2.2,4,2.4C971.5,736.5,972.4,737.4,973.2,738.8z M968.2,722.7c-0.7,0-1.4,0-2.1,0  c0,0.1-0.1-5.7,1.4-5.4C969.4,717.6,968.1,721.5,968.2,722.7z M970.5,711.8c1.1,1.6-2.7,3.4-3.4,4.2c-0.5-0.5-1-1-1.5-1.5  C965.5,714.6,969.6,710.5,970.5,711.8z M962.2,734.6c1.3-1.6,4.2,6.4,4.1,7.6c0.5-2.8,1.1-1.4,3-1.8c2.4,2.9-2.8,2.9-3.9,3.1  c-0.2-0.7-1.9-7.3-2.8-6.2c-0.2,0.3-0.5,2.2-1.1,2C960,739.1,962.4,735.6,962.2,734.6z M959.4,842.8c-0.8-0.2-1.4-0.7-1.9-1.4  c-1.2-0.1-1.4,1.7-2.5,1C949.3,831.1,963.4,842.2,959.4,842.8z M953.1,862.5c-0.3-0.8-0.4-1.5-0.2-2.3c-0.7-1-2.2,0-2.3-1.2  C955.7,847.3,956.2,865.2,953.1,862.5z M950.9,776.5c0.1,0.7-2.8,4-1.4,4.3c0.5,0.8,0.1,1.4-1.4,1.8  C943.1,783.1,950.4,772.7,950.9,776.5z M943.5,799.8c1,1.9,0.9,4-0.1,3.6C942.4,801.5,942.4,799.5,943.5,799.8z M922.8,836  c1.6,1.4,2.3,3.3,1.2,3.4C922.4,838,921.7,836.1,922.8,836z M905.1,935.6c1.6,3.2,0.2,8.1,3.4,10.3  C904.5,946.8,903,936.2,905.1,935.6z M913.5,887.5c-5-2.8-10.1-5.9-15.1-9.1c0.2-0.2,5.8,2.4,6.9,2.5  C904.9,881.9,912.7,885.7,913.5,887.5z M902.1,874.8c2.2-3.5,2.3,0.4,3.9,1.2C905.8,880.7,900.5,877.3,902.1,874.8z M895.9,869.9  c1.1,1.7,2.8,4.7,3.4,6.1C896.5,876.8,891.7,871.6,895.9,869.9z M893.7,942.4c0,2,3.2,10,1,10.1  C894.3,950.1,890.4,943.1,893.7,942.4z M844.9,999.7c-0.4-0.9-1.1-1.3-2.1-1.2c2-2.4,1.4-0.8,3.5-0.6  C845.8,998.5,845.4,999.1,844.9,999.7z M850.7,1002c-0.3-1.4,1-4.4,2.3-2.6C854.2,1001,851.7,1003.9,850.7,1002z M852.4,985.5  c-2.1-0.5-2.2-3.8,0.5-3.5C853,983.6,852.2,983.7,852.4,985.5z M855.3,998.3c-0.7-2.1,2.2-3.7,3.3-1.4  C857.3,997.9,856.8,997.3,855.3,998.3z M870,992.2c-2,2.9-3.9-3.7-1.5-2.4c-0.3-0.5-0.4-1.6-1.1-1.3c0.3-1.7,2.8-2.3,1.9,1.5  c0.4-0.1,0.9-0.1,1.5-0.2C871.6,991.6,870.9,992.2,870,992.2z M886.7,964.3c-1.3-2.4-1.1-1-2.9-0.6c-0.3-1.3-1.7-3-2.8-3.8  c0.1,0.5,0.1,1.2-0.6,2.2c-0.1-0.1-0.1-0.2-0.2-0.3c0,0.2-0.1,0.4-0.1,0.6c0.1,0.3,0,0.6-0.1,0.9c0,0.1,0,0.1-0.1,0.1  c0,0,0-0.1,0.1-0.1c0.1-0.2,0.1-0.5,0.1-0.9c-0.1-0.5-0.3-1-0.7-1.5c-0.6-0.4-0.7,0.5-2,0.9c-0.5-1.5-2.5-3.1-3.8-3.6  c-0.1,0-0.1,1.7-0.1,2.8c0,0.1,0.1,0.2,0.1,0.4c0.4,2,5.3,9.1,3.2,9.6c-0.9-2.2-6.1-8.1-3.3-9.6c0-0.1,0-0.3,0-0.4  c-0.7-2.2-6-4.4,0.5-4.1c2.9,0.2,7.3-3.4,8.6,0.7c-0.8,0.3-1.2,0.5-1.5,0.8c2.9,0.5,7.6-2.4,8.4,1.8  C885.8,961.1,889,961.9,886.7,964.3z M890.3,928.6c-0.8,0.2-5,0.4-5.8,0.1C883.7,926.4,889.4,925.9,890.3,928.6z M892.1,956.4  c-3.5,2.2-8.5-7.3-6.7-8.5C888,950.3,888.4,955.4,892.1,956.4z M883.9,878.3c-0.6,0.9,6,6.5,6.4,8.4c-4.2-4-8.4-8.2-12.4-12.5  C878.1,874,882.9,877.9,883.9,878.3z M880.2,895.6c0.2,2,0.3,5.4,0.2,7C877.5,902.1,875.7,895.2,880.2,895.6z M880.7,930.3  c-0.6,0.5-4.2,2.8-5,2.9C873.8,931.6,878.5,928.4,880.7,930.3z M874.2,939.8c-2.4,3.4-10.6-3.3-9.5-5.2  C868.1,935.8,870.4,940.3,874.2,939.8z M873.2,929.6c-0.8,0-5-0.7-5.7-1.2C867.3,925.9,872.9,926.7,873.2,929.6z M867.6,912.7  c-0.2,0.9-2.4,0.2-2.1,1.5c-1-0.5-0.9-1.8-1.3-3.2C864.1,910.4,868,911.3,867.6,912.7z M866.2,919.5c-0.2,0.9-2.4,0.1-2.2,1.4  c-0.9-0.5-0.8-1.8-1.1-3.3C862.8,917,866.6,918.2,866.2,919.5z M860.7,969.9c-3.8,0.5-0.8,1.6-3.2,3.8c-1.2-2.5-1-1.1-2.8-0.8  c-0.2-1.5-1.8-3.5-3-4.3c-0.1-0.1-0.4,1.6-0.7,2.8c0,0.4,0,0.7-0.3,1c0.1-0.1,0.2-0.5,0.3-1c-0.2-2.3-5-5.5,1.4-3.9  C855.2,968.3,860.2,965.6,860.7,969.9z M850.5,917.8c-0.1,0.9-2.4,0.4-1.9,1.7c-1-0.4-1.1-1.7-1.6-3.1  C846.7,915.8,850.7,916.4,850.5,917.8z M849.1,924.8c-0.5-0.3-1-0.5-1.5-0.7c-1.1-2.5-2.3-7.4-5.5-5.3c-0.9-2,0.9-1.1-0.6-3.6  C844,913.5,848.4,923.7,849.1,924.8z M842.2,923.6c2.9-0.8,3.9,10.2,4.1,11.5c-0.4-0.4-0.8-0.7-1.2-1.1c-0.2-2.7,0.1-7.6-3.6-6.8  C841.3,925.1,842.7,926.5,842.2,923.6z M841.6,981.9c-1,1.3-1.7,0.9-2.7,2.4C837.6,982.6,839.6,980,841.6,981.9z M807.9,951.3  c1.3,1.6,1.5,0.7,1.8,3C809.1,954.8,805.9,952.5,807.9,951.3z M822.5,930.2c2.8-0.8,4,10.1,4.3,11.4c-0.4-0.4-0.8-0.7-1.3-1  c-0.3-2.7,0-7.7-3.6-6.8C821.6,931.7,823.1,933.1,822.5,930.2z M816,956.7c-0.8,0.4-3.4-2.4-1.2-3.3  C815.9,955.3,816.3,954.4,816,956.7z M814.4,946.4c-0.8,0.3-5.1,5.1-6.4,4.1c-0.3-0.2,0.7-1.1,0.7-1.4c-0.6-0.3-1.2-0.1-1.9,0.4  C807.1,948.8,813.9,946,814.4,946.4z M806.6,952.5c-0.8,0.3-5.4,4.8-6.6,3.7c-0.2-0.2,0.8-1.1,0.8-1.3c-0.6-0.3-1.3-0.2-1.9,0.2  C799.2,954.4,806.2,952,806.6,952.5z M805.5,936.1c-2.3-0.4-7-1.4-6.3-3.9c1.3,0.3,3.7,0.7,2,2C800.9,935.3,806.8,934.4,805.5,936.1  z M803.2,911.9c-0.5,2.1,0.4,1.7-1.4,3.3C801.1,914.9,801,911,803.2,911.9z M801.5,887c-1.2,1.2-5.8,4.3-6,3.9  C797.5,888.7,799.2,888.5,801.5,887z M792,911.2c0.9-0.2,3.5,2.4,3.5,2.9c-0.4,0.5-3.4,0.7-4.3,0.5C791.3,913,791.8,913,792,911.2z   M788.7,948.9c0,1.1,0.5,1.6,1.5,1.5C789.4,954.6,788.1,952.6,788.7,948.9z M788,880c0,0.9,0.9,3.5-0.6,3.5  C788,881,785.3,879.5,788,880z M784.1,901.9c0.9-0.3,3.7,2.1,3.7,2.6c-0.5,0.4-3.4,0.9-4.3,0.8C783.5,903.7,784,903.6,784.1,901.9z   M781.2,907.9c0.9,0,3.1,3,2.9,3.5c-0.5,0.4-3.4,0.1-4.3-0.3C780.1,909.5,780.7,909.6,781.2,907.9z M777.7,915.4  c0.4,1,4.6-3.3,4.6-1.2c-2.1,1-6.4,3.2-7.4,0.8C776.1,914.4,778.2,913.3,777.7,915.4z M774.2,920.7c0-0.1-0.1-0.1-0.1-0.2  c0.3-0.1,0.7-0.3,1-0.4c1.7-1.1,3.7-2.2,4-2c-0.3,0.2-1.2,1.4-2.2,2.6c0,0.1-0.1,0.2-0.1,0.4c0.4,1.1,4.9-2.9,4.7-0.7  c-1.4,0.6-3.8,1.5-5.5,1.4c-0.9,1-1.9,1.8-2.5,1.5c-0.3-0.2,0.5-1.2,0.5-1.5c-0.7-0.2-1.3,0.1-1.8,0.7  C772.3,922.2,773.1,921.5,774.2,920.7z M768.4,931.4c2.7,3.3,0.3,3-2.1,0.2C767.1,932.3,767.8,932.2,768.4,931.4z M765.1,935.5  c0,1.1,0.5,1.6,1.5,1.6C765.7,941.2,764.4,939.2,765.1,935.5z M757.5,956.6c0,0.7,0,1.3,0,2c-0.9-0.2-0.5-2.9-0.7-3.5  c1.6,0.2,2.7,1.2,3.3,2.8C759.9,957.8,758,955.7,757.5,956.6z M761.9,882.4c0.2-1.1,2.6,2.5-1.4,1.6  C760.4,883,760.9,882.5,761.9,882.4z M759.8,918.3c-2.7-0.4-0.6-2.3-1.4-3.2C763.7,914.9,759.5,917.4,759.8,918.3z M758.8,891.7  c-1.2,5.2-2.6,0.5-3.5,0.6C756.4,889.8,757.7,892.2,758.8,891.7z M754.8,904.1c4.8,2.1-0.1,2.6-0.1,3.5  C752.4,906.1,755.1,905.3,754.8,904.1z M746.1,942.3c1.5,0.7,2.3,1.8,2.5,3.5c-0.2-0.1-1.5-2.6-2.2-1.9c-0.2,0.6-0.4,1.3-0.5,1.9  C745,945.4,746.1,942.9,746.1,942.3z M722.2,925.1c1.7,0.4,1.4,4.5-1.4,3.4C720.6,924.7,722.2,927.8,722.2,925.1z M717.1,920.9  c-1.6,2.7,0.6,0.4,0.8,1.7c-0.9,1.4-1.6,0.7-2.5,0.1c-0.1,0.2-0.3,0.3-0.5,0.5c-1.1-1.1-1.4-1.4-2.4-2.6c0.5-0.3,2.5,0.1,3,1  C716,921,716.6,920.6,717.1,920.9z M714.6,889.3c3.1,2.3-2.7,4.1-2.8,3.8c-1.1,1.1-2.1,2.3-3,3.6  C707.3,895.3,713.5,890.9,714.6,889.3z M661.4,883.7c0.4,0.1,1.1,5.1,0.8,5.7c-1.9-1-2.1-2.8-4-3.4  C659.2,884.1,659.3,882.6,661.4,883.7z" style="fill: #AF9270;"></path><path class="st1" d="M1050.4,748.5L1050.4,748.5c-0.1-0.1-0.1-0.1-0.1-0.1C1050.3,748.4,1050.4,748.5,1050.4,748.5z" style="fill: #AF9270;"></path><path class="st1" d="M1046.2,751.9C1046.2,751.9,1046.2,751.9,1046.2,751.9C1046.2,751.9,1046.2,751.9,1046.2,751.9z" style="fill: #AF9270;"></path><path class="st2" d="M1043,1008.6c0.1-0.1,0.1-0.2,0.2-0.3C1043.1,1008.4,1043,1008.5,1043,1008.6z" style="fill: #556934;"></path><path class="st2" d="M851.2,1042.8l-17.4,53.7l33.5-24.4c-1.4,0-3,0-2.9,0.2c0.5-0.1,0.9,0.1,1.1,0.5c-4.8-0.5-0.2-2.2,1.3-2.3  c0.7-0.4-3.7-1.8-4-2c-0.5-0.4,10.8,3.4,2.8,2.6c0.7,0.3,1.5,0.5,2.2,0.6l117.8-85.6c-2.4,0.8-5,1.3-5.1,1.2c-1.6-1.5,5.2-2.7,8-3.2  l10.3-7.5l44.1,32.1c0,0,0.1-0.1,0.1-0.1c0-0.1,0.1-0.2,0.2-0.3c-0.1,0.1-0.1,0.2-0.2,0.3c0,0,0,0.1-0.1,0.1l0.2,0.2  c0.6-0.2,1.9-1.2,1.6-1.7c0.8,1.7,0.9,0.7,2.4-2.6c0.2,0.5,0.4,1.1,0.5,1.6c-0.4,0.5-2.5,2.2-4,3.1l23.7,17.2  c0.1-0.3,0.1-0.5,0.1-0.7c0,0.4,0,0.7,0,0.9l0.5,0.4c0.3-0.2,0.7-0.9,1-1.8c-0.1-0.2-0.2-0.3,0.1-0.2c0,0.1,0,0.1-0.1,0.2  c0.3,0.5,1.4,1.7,1.5,1.8c0,0,0,0,0-0.1c0,0.1,0,0.1,0,0.1c-0.4,1.1-0.6,1.3-0.8,1.3l87.8,63.8c0.8-0.7,2.1-1.2,1.9,1.2  c-0.2,0-0.3-0.1-0.5-0.1l4.5,3.2l-17.4-53.7l-49.6-36c-0.7,0.4-1.6,0.5-2.7,0.5c1.6,1.5,2.9,5.2,1.7,6c-1.2-2.1-2.2-4.4-3.3-6.6  c0.5-0.2,1,0,1.5,0.5c-0.1-0.4,0.3-1.1,0.7-1.9l-95.6-69.5l-104.8,76.1c1.2,1.2,3.2,2.9,2.2,4.4c-1.1-1.1-2.1-2.4-3-3.7  c0-0.1,0-0.1,0-0.2L851.2,1042.8z M843.3,1081.4c1,1.1,2.7,1.1,2.6,2.5C843.2,1083.6,841.6,1089.1,843.3,1081.4z M1146.4,1078.2  c-0.6-0.5-1.3-1-2-1.4C1144.3,1076.3,1148.1,1075.2,1146.4,1078.2z M1142.2,1067c1.4,0,2.8,0,4.2-0.1c0,2.3,1.3,4.6,0.1,7  c0.2-1.3-0.1-2.5-1-3.4c-0.8,0.3-1,1-0.5,1.9c0.1,0.1,0.2,0.3,0.2,0.4c-0.1-0.2-0.2-0.3-0.2-0.4c-1-1.6-2.1,0.7-3-0.8  C1142.5,1069.8,1142.4,1069,1142.2,1067z M1098.5,1015.2c4.3,1,2.8,3.7-0.3,4.8C1097.6,1019.6,1098.5,1016.2,1098.5,1015.2z   M1061.8,1015.4c-1-2.2-1.8-4.6-2.6-6.9C1061.2,1007.9,1063.6,1014.5,1061.8,1015.4z M1062.6,1017.3c-0.1,0-0.2,0-0.2-0.1  C1062.4,1017.2,1062.5,1017.3,1062.6,1017.3c1.4,0.4,2.9,0.9,4.3,1.3C1066.1,1020.7,1063.5,1017.8,1062.6,1017.3z M1091.8,1016.2  c-0.5-2.4-0.7-4.9-1-7.3C1092.8,1008.8,1093.7,1015.8,1091.8,1016.2z M1089.3,1036.3c0.5,0.1,0.9,0,1.4-0.3s0.8-0.6,0.9-0.7  c0,0,0,0,0,0c1-0.8,1.9-2,2.3-2.6c-1.2,2,0.3,1.5,1.6,0.2c0-0.3,0-0.4,0.1-0.1l-0.1,0.1c0.1,0.6,0.4,2.1,0.6,2.3c0,0,0,0,0.1,0  c0,0.1,0,0.1-0.1,0c-2.4,2.2-0.5-0.7-2-0.5c-1.2,1.2,0.2,2.2-1.4,3.7c-0.6-1.2-2.2-1.3-1.2-2.9c-0.3,0.2-0.6,0.4-0.9,0.6  c-0.9,0.6-2.2,1.5-2.2,1.3C1088.8,1037,1089,1036.6,1089.3,1036.3z M1084.2,1027.1c1.4,0.5,2.8,1,4.2,1.6  C1087.4,1030.7,1085,1027.6,1084.2,1027.1c-0.1,0-0.1-0.1-0.2-0.1C1084,1027,1084.1,1027,1084.2,1027.1z M1082.2,1019.9  c0.6,0.1,1.2,0.3,1.7,0.4c-0.3,1.5-1.3,1.7-1.5,3.3C1081.1,1022.6,1081.8,1021.3,1082.2,1019.9z M1074.4,1009.9  c0.3,1.2,0.1,10.4-1.1,4.9c0.4,2,0.9-1.7,0.1-1.9c1.9,0.4,1.1-0.3-0.6-3.5C1073.3,1009.6,1073.9,1009.7,1074.4,1009.9z   M1069.5,991.7c0.3,0.9,0.8,1.2,1.5,0.8c1.5,4.2-4.3,5.7-4.8,1.2C1065.9,991.6,1068.5,993.1,1069.5,991.7z M1062.6,1010.9  c0.7,0.5,1.4,1,2.1,1.6c0.3-1.1,0.3-2.3,0.3-3c0.1,1.4,0.5,1.5,0.8,1c-0.9-2,0.5-1.9,0.2-3.2c0.9,1.1,1.4,2.1,1.6,2.8  c0.2,0.2,0.4,0.3,0.5,0.3c0,0,0,0,0-0.1c0,0.1,0,0.1,0,0.1c-0.2,0.6-0.3,1-0.4,1.2c0.6-0.1,1.3-0.4,1.3-0.7c0,1.9,0.5,1.1,3.3-1.3  c-0.1,0.5-0.2,1.1-0.2,1.7c-0.7,0.3-4.2,1.1-5.8,1.2c0.4,0.7,1.1,1.2,0.7,2.6c-1-0.6-2.3,0-2.6-1.2c-0.1-0.1-0.1-0.1-0.2-0.2  c-0.1,0.2-0.2,0.5-0.3,0.7c-0.2,0.5-0.4,1-0.6,1.4c4.6-0.2,4.9,1.6,3.1,2.1c-3-0.1-2.3-1.3-3.2-1.9c-0.2,0.4-0.4,0.8-0.4,0.7  c0-0.4,0.1-0.9,0.1-1.3c0.4-0.2,0.7-0.5,1-1c0.1-0.3,0.2-0.5,0.3-0.7C1063.6,1012.6,1063,1011.3,1062.6,1010.9  c-0.1,0-0.1-0.1-0.2-0.1C1062.5,1010.7,1062.6,1010.8,1062.6,1010.9z M1059.6,985.4c0.1,0.9,0.6,1.3,1.3,1c0.7,4.4-5.2,4.9-4.9,0.4  C1056.1,984.7,1058.4,986.6,1059.6,985.4z M1037.8,994c0.5-0.1,2.4,0.8,2.1,1.3c-0.7,0.3-1.2,0.8-1.6,1.4c0.2,0.6-0.3,0.6-1.2-0.1  C1036.8,995.8,1039.3,994.8,1037.8,994z M954,980.2c0.5,1.9,0.8,2.3,2.2,1.5c0,0.2,0.1,2.9,0.3,3C955.1,984,952.8,981.1,954,980.2z   M961.8,986.2c-1.1-1-2.7-4.4-1.3-4.9c0,2,0.2,2.4,1.8,1.9C962.2,983.4,961.7,986,961.8,986.2z M956.2,974.4  c1.9-0.8,5.9-4.1,6.7-2.5c-2.1,0.7-8.7,4-7.4,3.5C950.9,979.1,953.2,971.6,956.2,974.4z M905.8,1013.9c-0.1-0.2-0.2-0.4-0.3-0.6  c0.2-0.4,0.3-0.9,0.3-1.4c0.3,0.5,1,1.3,1.6,2.2c0.1-0.6,0.4-1.2,0.8-0.9c0.1,0.1,0.1,0.1,0.2,0.2c0.3-0.2,0.5-0.3,0.7,0  c0.2,0.9,0.1,1.3-0.4,1.2c0.5,0.6,0.5,1,0,1.1c-0.3,0.6-0.2,1.5,0,2.6c0.1,0.4,0.2,0.8,0.3,1.2c0.4,0.3,0.6,0.6,0.3,0.9  c-0.1-0.3-0.2-0.6-0.3-0.9c0,0-0.1,0-0.1-0.1c0.1,0.4,0.2,0.9,0.4,1.3c0.4,0.3,0.6,0.6,0.3,0.9c-0.1-0.3-0.2-0.6-0.3-0.9  c-0.6-0.4-1.6-0.8-2.3-0.9c0,0.2-0.1,0.4-0.3,0.5c0-0.1,0-0.2,0.1-0.4c-0.4-0.2-0.3-0.2,0-0.2c0,0,0,0,0-0.1  c-0.1-0.3-0.1-0.6-0.2-0.8l-0.1-0.1c-0.4-0.2-0.4-0.2-0.2-0.2c-0.1-0.1-0.2-0.2-0.3-0.3c-0.2-0.1-0.4-0.1-0.8-0.2  c-0.1-0.3-0.1-0.5-0.1-0.7l-0.1-0.1c0,0.1,0,0.1-0.1,0.2c-0.4-0.5-0.3-0.5,0.1-0.2c0-0.1,0.1-0.3,0.1-0.4c-0.1,0-0.1,0-0.2,0  c-0.2-0.7,0-1.1,0.2-1.3c-0.1-0.1-0.3-0.3-0.6-0.5C904.7,1013.7,905.3,1013.7,905.8,1013.9z M866.5,1065.7c0.5,0,0.9,0.3,1,0.7  c-4.6-1.7,0.2-2.2,1.8-2c0.8-0.2-3.1-2.6-3.4-2.9c-0.4-0.5,9.6,5.9,2.1,3.2c1,0.7,2.1,1.2,3.3,1.7  C870.9,1066.7,866.4,1065.3,866.5,1065.7z M868.4,1048.2c0.5-0.1,0.9,0.1,1.1,0.5c-4.8-0.6-0.2-2.2,1.3-2.3c0.7-0.4-3.6-1.9-3.9-2.1  c-0.5-0.5,10.7,3.5,2.7,2.6c1.2,0.4,2.3,0.7,3.6,0.9C872.9,1048.2,868.2,1047.8,868.4,1048.2z M873.3,1038.3c-0.6-1.3,0-4.5,1.7-3  C876.5,1036.6,874.6,1040,873.3,1038.3z M884.6,1038.7c-1.4-0.7-2.7-1.5-4-2.5c0-0.5-0.1-0.9-0.4-1.4  C881.3,1035.6,885.1,1036.5,884.6,1038.7z" style="fill: #556934;"></path><path class="st2" d="M1181.6,1186.2l15,10.9l-17.3-52.5c-0.4,0.1-0.8,0.2-1.3,0.3c-0.1-0.5,0.1-1,0.3-1.6l-148.2-107.7  c0,0,0,0,0,0.1c0-0.1,0-0.1,0-0.1l-1.2-0.9c-2.2-1.1-6.5-2.7-7.4-3c1.2,0.2,2.3,0.4,3.5,0.5c-0.7-0.4-1.4-0.7-2.3-0.9  c0.5-0.1,1.7,0.3,3,1l-26.8-19.5l-59.9,43.5c0.8,1.8-1.8,2.3-2.7,2l-15.8,11.5c0.9-0.3,1.8-0.5,1.9-0.3c0.9,0.8-1.5,2,1.3,1.2  c0.1,0.5,0.2,1,0.3,1.5c0,0,0.1,0,0.1,0s0,0-0.1,0c-0.7,0-5.9,0.5-3.2,1.6c-1,0.2-4.4,0.6-5.8-0.1l-96.2,69.9l-17.4,53.7l71.5-52  c-0.6-0.3-0.7-1.7-1.2,0.6c-1.4,0-1.2-1.1,0.5-3.4c0.3,0.2,1.5,1.3,1.7,2.1l26.5-19.3c-1.3,0.2-1.8,0.2-2.2-1.9  c3.5-0.8,0.2-2.5,0-4.8c1.4,2.8,1.1-3.6,1.4-2.7c1.1,3.8,1.7-0.2,2.7,3.1c1.2,1.9,1.4-1,2.6,1.8c-0.2,0.4-0.4,0.6-0.6,0.8  c0.1,0.2,0.2,0.4,0.3,0.6l94.5-68.7l181.3,131.8c0.9-0.6,1.9-1.1,2.8-1.7C1183.7,1184.5,1182.8,1185.5,1181.6,1186.2z M822.6,1160.7  c-0.5,0.1-0.9,0.1-1.6-0.2c0.1-0.7,0.3-1.2,0.5-1.6c0-0.3,0.1-0.6,0.2-0.9c-0.2-0.3-0.7-0.6-2-1.5c1-2.1,2.8-0.9,4.2,0.2  c0.1,0,0.2,0,0.3,0c0.3,1.5,0,3.1,0.4,4.5C823.8,1161.2,823.1,1161,822.6,1160.7z M834,1137.3c0.1,0.1,0.2,0.1,0.3,0.1  c0.3-0.3-0.8-3.1-0.9-3.4c2.6-1.2,0.7,1.1,2.1,1.6c0,0.3-0.6,1.8-1.2,1.9C834.2,1137.5,834.1,1137.5,834,1137.3z M835.1,1142.3  c1-2.9,2.1-1.5-0.8-4.1c0.6-0.8,1.2-1,1.8-0.9c0,0,0,0,0,0c0,0,0,0,0,0c1.8-0.6,1.5,0.1,1.4,0.9c0.3,0.3,0.6,0.6,0.9,0.9  C838.1,1138.9,838.1,1144.4,835.1,1142.3z M839.9,1161.6c-2.3-3,1.1-6,3.5-2.9C842.4,1159.8,840.9,1160.5,839.9,1161.6z   M844.2,1162.5c0.7-0.8,2.1-0.9,3.1-1c0,0.5,0.1,1,0.1,1.5C846.1,1163.5,845,1163.3,844.2,1162.5z M855.5,1145.6  c-1-3.7,3.3-5.1,4.3-1.3C858.4,1144.9,856.8,1145,855.5,1145.6z M875.9,1120.7c0.9,0.6-1.8-2.4-2.6-3.2c0.4,0.3,3.8,3.9,3.1,0.7  c2,2.2,0,1.7,1.3,3.4C877,1122.5,876.3,1122.2,875.9,1120.7z M909.2,1118c-2.3,0.4-3,1.3-3.7-1.5c3.5-1,0.1-2.5-0.2-4.8  c1.5,2.7,0.9-3.7,1.2-2.8c1.3,3.7,1.7-0.3,2.9,3c-1.3,1.9-1.8,0.8-1.5,4c2.4,1.5,2.2-5.4,4.4,0.1  C911.1,1117.4,909.1,1115.2,909.2,1118z M942.8,1058.9c0.6-1.1,0.9-2.2,1.1-3.4C946.8,1056.8,943.6,1059.3,942.8,1058.9z   M950,1086.7c-1-0.7-2-1.3-3.2-1.6C948.6,1082.5,950.5,1086,950,1086.7z M1034.2,1072.1c-1.7,2.9-3.4-2.2-2.5-4.1  C1032.8,1070.3,1036.2,1067.8,1034.2,1072.1z M1039.7,1075.2c1-0.4,3.9,0.3,4.9-0.3c0,0,0.1-0.1,0.1-0.1c0,0,0-0.1,0.1-0.1  c0,0.1,0,0.1-0.1,0.1c0,0-0.1,0.1-0.1,0.1c-0.3,0.2-0.5,0.5-0.8,0.8c0.7-0.5,1.1-0.5,1.1,0.1  C1041.7,1076.8,1041.6,1077.9,1039.7,1075.2z M1042.5,1065.8c-1.2-1,0.4-1.8-2.6-0.3c0.3-0.4,5.1-2.6,5.2-2.6  c-1.2,0.4-1.7-0.1-1.7-1.4c2.9-1.2,0.3,0.6,1.6,1c0.6-0.6,1.3-1,2-1.4C1047.8,1062.6,1043.3,1065.3,1042.5,1065.8z M1056,1065  c-3.4,0.4-3.8,1.5-4.9-1.6c1.1-0.1,4.3,1.4,5.1,0.6c-0.4,0.2-0.8,0.5-1.2,0.7C1055.7,1064.3,1056.1,1064.4,1056,1065z   M1063.3,1076.2c-1.6,0-0.8-1.6-2.2,1.5c0-0.5,1.9-4.7,2.2-5.2c-0.6,1-1.3,1-2.2,0c1.4-2.8,0.6,0.2,1.9-0.3c0.1-0.8,0.3-1.6,0.6-2.4  C1065.3,1070.4,1063.7,1075.3,1063.3,1076.2z M1080.9,1101.1c-1.1-0.1-4.6-5.3-4.4-7.4c0.7-1.3-0.2-1.1,0.1-3  c2.3,0.2,2.2,4.2,4.5,5.3C1075.4,1096.4,1082.9,1098.9,1080.9,1101.1z M1091.1,1113.9c-1.2-0.1-4.8-5.1-4.8-7.1c0.6-1.3-0.2-1.1,0-3  c2.3,0.1,2.4,4.1,4.7,5C1085.4,1109.5,1092.9,1111.6,1091.1,1113.9z M1092.1,1092c-0.2,0.6-4.8-0.6-3.9,0.6c0.1,0.1,0.2,0.2,0.3,0.3  c0.2,0.1,0.4,0.3,0.6,0.4c1.3,0.7,3.1,1.4,2.8,2.7c-0.4-0.8-1.4-1.8-2.8-2.7c-0.2-0.1-0.4-0.3-0.6-0.4c-1.1-0.7-2.2-1.4-3.5-2.1  c-1.1,0.3-2-0.4-2.6-1.3c-1.5-0.6-2.8-1.1-3.6-1.1c0,0,2.8,1.8,2.5,2.2c-0.8-0.2-1.5-0.3-2.3-0.5c-0.5-0.2-2.9-4.2-1.7-4.5  c1.8-0.6,3.6,1.3,5.3,1.6c-1-0.1-0.9,1.3-0.2,2.3c0.8,0.4,1.7,0.8,2.6,1.3c0.3-0.1,0.6-0.2,0.9-0.5c1.3-1.2,4.9-2.1,0.8-4  c-0.1-0.3,6.3,1.4,7,2C1098,1091.7,1092.2,1090.6,1092.1,1092z M1106.6,1123.8c-2.6,1.9,0.8-9.6,1.3-1.8  C1106.4,1122.5,1107.7,1123.1,1106.6,1123.8z M1107.3,1109.8c-0.3,0.6-4.6-1.4-4,0c0.1,0.1,0.2,0.3,0.3,0.4c0.1,0.1,0.2,0.2,0.3,0.3  c1.1,1,3,1.9,2.4,3.3c-0.3-0.9-1.2-2-2.4-3.3c-0.1-0.1-0.2-0.2-0.3-0.3c-1-0.9-2.1-1.9-3.2-2.7c-1.1,0.1-1.9-0.7-2.4-1.7  c-0.2-0.1-0.3-0.2-0.5-0.3c-0.6,0.5-0.9,0.1-1-0.6c-0.8-0.4-1.4-0.7-1.9-0.8c0,0,2.4,2.3,2.1,2.6c-0.7-0.3-1.5-0.6-2.2-0.9  c-0.4-0.2-2.2-4.6-1-4.8c1.3-0.2,2.3,0.7,3.4,1.5c0.6-1.8,1.6-2.9,1.9,1.1c-1.4,0.5-0.5,1-1,1.6c0.1,0.2,0.1,0.4,0.2,0.5  c0.8,0.5,1.6,1,2.4,1.7c0.3,0,0.6-0.2,1-0.4c1.4-0.9,5.2-1.3,1.4-3.9c-0.1-0.2,2.3,0.8,4.3,1.8c-0.3-0.4-0.5-1-0.7-2  c0-0.6,2,1.3,2.2,0.8c-0.1-0.4-0.2-0.9-0.3-1.3c2.2-1.1,0.9,2.7-0.4,2.9c0.8,0.4,1.4,0.7,1.5,0.9  C1113.2,1110.5,1107.6,1108.5,1107.3,1109.8z M1113.4,1099.5c-1.6-0.4-0.8,0.8-2.1,0.9C1108.2,1100.6,1117,1092.6,1113.4,1099.5z   M1129.3,1122c-0.2-0.9-1.1-2.1-2.2-3.3c-0.1-0.1-0.2-0.3-0.3-0.4c-0.9-1-2-1.9-3-2.8c-1.1,0.1-1.9-0.8-2.3-1.8  c-1.3-0.9-2.5-1.6-3.3-1.9c0,0,2.3,2.4,2,2.7c-0.7-0.3-1.4-0.7-2.1-1c-0.4-0.3-1.9-4.7-0.8-4.8c1.9-0.2,3.2,2,4.8,2.7  c-1-0.3-1.1,1.1-0.6,2.3c0.7,0.5,1.5,1.1,2.3,1.8c0.3,0,0.6-0.1,1-0.3c1.5-0.9,5.2-1.1,1.6-3.8c-0.1-0.3,5.9,2.7,6.4,3.4  c3.4,4.4-2,2-2.4,3.4c-0.3,0.4-4.5-1.8-3.9-0.3c0.1,0.1,0.2,0.3,0.3,0.4s0.2,0.3,0.3,0.4C1128.2,1119.7,1130,1120.7,1129.3,1122z   M1130.2,1136.7c2-2.9,0-5.1,4-3.3C1132.8,1135.9,1131.9,1134.4,1130.2,1136.7z M1143.7,1118.4c0.4,1.1,0.7,2.3,0.9,3.5  C1142.2,1122.5,1141.4,1119.2,1143.7,1118.4z" style="fill: #556934;"></path><path class="st2" d="M839.9,1161.6c1-1.1,2.5-1.8,3.5-2.9C841,1155.6,837.6,1158.6,839.9,1161.6z" style="fill: #556934;"></path><path class="st2" d="M1212.6,1248.5c0.1-0.2,0.2-0.3,0.3-0.4l-1-3l-213.1-154.8l-84.5,61.4c2.3,0.3,5.3,0.3,5.7,3.2  c0-0.4-3.8-1.8-6.1-2.9l-109.8,79.8c-0.1,0.1-0.1,0.3-0.2,0.4c0-0.1,0-0.2,0-0.3l-0.5,0.3c0,0.8,0,1.5,0,2.3  c-0.2-0.1-0.4-0.9-0.5-1.9l-17.2,12.5l-25.2,77.4l14.1-10.2c-0.4,0.1-0.9,0.1-1.4,0c0.5,0,0.9,0,1.4,0c0,0,0.1,0,0.1,0l1.4-1  c-0.7-0.8-3.2,0.7-3.9,0.3c-0.8-0.5,3.6-0.7,4.5-0.8c0,0,0,0,0-0.1c0,0,0,0,0.1,0l222-161.3l66.3,48.2c0.4-0.1,0.9-0.1,1.8,0.2  c-0.2,0.3-0.3,0.5-0.5,0.7l30.4,22.1c-0.2-1.1,0.2-2.6,1.6-4c1.1,0.3,2.3,0.6,3.5,0.9c-0.8,0.3-6.1,4.2-2.4,2.7  c-2.3,2.2,1.2,1.5,2.3,1.4c-0.8,0.6-1.5,0.9-2.3,1l128.6,93.4c0.1-0.2,0.1-0.4,0.2-0.5c-1.8-0.2-2.1-1.1-0.7-2.7  c1.9,0.7,0.8,3,1.2,3c0.6-0.2,1-0.5,1.3-1c-0.3,0.7-0.6,1.3-0.9,1.9l7.9,5.8l-23.9-73.7C1213,1248.7,1212.8,1248.6,1212.6,1248.5z   M813.6,1258.2c0.6,0.6,3.7,4.1,3.4,4.9C815.6,1260.5,811.6,1260.8,813.6,1258.2z M809,1271.9c0.1,0.8,0.3,1.5,0.5,2.3  C807,1274.2,806.6,1271.9,809,1271.9z M812.4,1267.6c0.8-0.1,5.5-0.6,5.9,0.1C815.5,1267.3,813.4,1270.7,812.4,1267.6z M818,1224.4  c1.1-0.5,2.1-0.5,3.2,0C822.1,1226.7,818.9,1226.5,818,1224.4z M838.5,1246.1c-2.5-1-0.3-4.5,2-3.4  C839.8,1243.9,839.2,1245,838.5,1246.1z M837.7,1227.9c0.1-1.2,0.7-2.1,1.7-2.7C841.9,1225.8,840.1,1228.3,837.7,1227.9z   M858.6,1229.8c0.2,1.3,0.3,2.6,0.4,3.9C856.4,1234.3,856.2,1230.2,858.6,1229.8z M884.4,1177c2.1,0.4,5.7-4.6,8.6-1.6  C892.7,1175,885.1,1177.5,884.4,1177z M899.5,1205.4c-1-0.5,0.9-2.3-1.6-0.8c-0.9-1,0-1.7,2.8-2  C900.8,1203.1,901,1206.1,899.5,1205.4z M906.4,1191c0,0.7-0.4,0.9-1.4,0.5c0-0.3,0.1-0.7,0.1-1.1c-1.3-0.5-5.2,0.7-5.6-1.1  c0.9-0.1,4.4,0,5.6-0.6c0-0.5,0.1-1,0.2-1.5c-0.3-0.4-0.5-0.7,0.7-0.9c0.2-0.1,0.5-0.1,0.8,0c-0.1,0.5-0.1,1-0.2,1.5  C906.9,1189.2,907.1,1190.5,906.4,1191z M941.2,1161.5c-1.3-1.7-7.1-3.7-7.3-5.8c0.9-1.8,1.7,1.1,3,1.8c-1.7-2.8,2.7-0.4,3.1-0.3  c-2.5-1.4-3.8-2.3-4.9-3.2c1-1.6,5.1,1.5,6.7,2.7c-0.9,1.8-1.6,1.5-3,2.2C941.6,1159.5,942.4,1160.3,941.2,1161.5z M956.6,1140.5  c-1.1,0.4-2.1,0.9-2.9,1.7c-0.5-1.5,6.2-5.4,7.9-3.2c-0.7,0.3-1.4,0.7-2.1,1.1c-2-1.1-4.7,7-7,4.4  C952.2,1144.7,958.7,1140.5,956.6,1140.5z M961.8,1165.1c-1.9-0.9-8-0.3-9.1-2c0-2,2,0.2,3.5,0.3c-2.8-1.8,2.2-1.6,2.7-1.6  c-2.8-0.1-4.4-0.4-5.9-0.8c0.2-1.6,3.8-1.1,6.1-0.7c0.7-2,4.8-5.8,6.7-4.4c-0.6,0.5-1.2,1-1.7,1.6c-1.7-0.4-2.3,4.4-3.7,5.9  C961.7,1163.4,962.2,1163.9,961.8,1165.1z M972.7,1163.8c-1.9-0.9-8-0.3-9.1-1.9c0-2,2,0.2,3.5,0.3c-2.8-1.8,2.2-1.6,2.7-1.6  c-2.8-0.2-4.4-0.4-5.9-0.8c0.3-1.9,5.3-0.9,7.2-0.5c0,2-0.7,2-1.7,3.3C972.2,1161.9,973.3,1162.3,972.7,1163.8z M971,1124  c-2.4,3.6,2.5,2.7,2.6,4.4c-3.1,3.1-7.3,0.7-5.6-2.4c3-2.5,3.1-4.2,7.2-4.5c-1,0.6-2,1.3-2.9,2c0.7,1.4,2.9,0,3.3,1.8  C973.2,1126.6,972.6,1125.2,971,1124z M979.8,1125.8c-2.4-1.7,1.4-2.1,1.2-2.9c-0.4-0.6-0.9-1.1-1.3-1.7c3.1,1.6-1.4-1.7,4.6,1.6  c1-1.7,2-3.4,3-5.1C991.2,1120.3,980.3,1125.5,979.8,1125.8z M988.8,1126.2c-2.8-0.9,0.6-2.4,0.2-3.2c-0.6-0.4-1.2-0.8-1.8-1.2  c3.4,0.6-1.9-1.2,4.9,0.1c0.4-1.9,0.8-3.9,1.2-5.8C997.8,1117.4,989.2,1125.8,988.8,1126.2z M994.1,1102.8c-1.9,3.9,2.8,2.3,3.2,4  c-2.6,3.5-7.2,1.7-5.9-1.6c2.6-2.9,2.4-4.6,6.5-5.4c-0.9,0.8-1.8,1.6-2.6,2.4c0.9,1.3,2.8-0.4,3.5,1.3  C996.7,1105.2,995.9,1103.8,994.1,1102.8z M1005.9,1126.5c-2.3-1.8,1.4-2,1.3-2.9c-0.4-0.6-0.8-1.2-1.2-1.8c3,1.7-1.4-1.7,4.5,1.8  c1-1.7,2.1-3.3,3.1-5C1017.4,1121.4,1006.4,1126.2,1005.9,1126.5z M1017.3,1160.7c-0.5,1.1-3.3-3.2-3.1-3.4  C1016.3,1157.5,1017.5,1158.4,1017.3,1160.7z M1031.2,1168.2c0.6-0.2,0.7-0.7,0.2-1.3c0.1-0.2,2.2,2.4,2.2,1  c0.4,0.7,0.7,1.5,0.9,2.3C1034.5,1170.5,1031.5,1168.6,1031.2,1168.2z M1042.7,1140.3c0.1-0.1,1.1,3.1,1.7,1.7  c0.1,0.8,0.1,1.6,0,2.5c-0.2,0.4-2.2-2.6-2.3-3C1042.8,1141.5,1043,1141.1,1042.7,1140.3z M1043,1174.3c-0.6-0.2,1-1.4,2.2-2.3  c-1.7,0.7-1.7-2.7,1.1-1.2c0-0.1,0-0.2-0.3-0.3C1049.6,1169,1045.7,1173.9,1043,1174.3z M1053.7,1176.2c-1,0.4,0.7-5.8-0.5-4.8  C1054.6,1167.9,1055.3,1174,1053.7,1176.2z M1071.1,1148.5c-0.2-0.1-0.4-0.2-0.4-0.3C1070.9,1148.3,1071,1148.4,1071.1,1148.5  c2,1,10.8,4.3,10.8,4.4c-2.4-1-4.5-0.8-6.8-2c-1.5-0.4-3.1-0.7-4.6-0.9C1071.6,1149.6,1071.8,1149.1,1071.1,1148.5z M1072.9,1170.4  c1.2-0.4,1.4-0.9,0.7-1.5c-0.2-0.1-0.4-0.2-0.4-0.3c0.1,0.1,0.3,0.2,0.4,0.3c0.9,0.5,3.1,1.5,5.3,2.4c0-2.2,2.7-3.8,3-1.1  c-1-0.2-1.9,1-2.6,1.2c2.6,1.1,5,2.1,5,2.2c-2.4-1.1-4.5-1-6.8-2.2C1076,1171,1074.5,1170.6,1072.9,1170.4z M1084.5,1208  C1080.3,1209.6,1082.4,1204.3,1084.5,1208L1084.5,1208z M1088.1,1162.6c-0.9-0.9-2.9,0.1-3.1-0.7  C1086.2,1160,1089.3,1160.2,1088.1,1162.6z M1185.9,1250c1.5,0.2,1.4,4.1,0.6,5C1184.2,1254.6,1185.1,1251.3,1185.9,1250z   M1154.3,1216.1c0.6,1.7,0.4,3.2,0.4,5C1151.7,1222.2,1150.8,1217.8,1154.3,1216.1z M1109.3,1213.6c1.2,0.2,2.4,0.4,3.6,0.6  c-0.7,0.4-5.7,4.8-2.2,2.9c-2.1,2.4,1.3,1.4,2.4,1.1C1109.9,1221.5,1105.8,1217.9,1109.3,1213.6z M1116.2,1230.4  c-1.1,0.1-2.1,0.1-3.2,0.1c0.5,0,0.1-7.2,0.9-8.2c0.1,3.2,0.7-0.1,1.5,1.1C1115.4,1225.3,1116.5,1227.8,1116.2,1230.4z   M1122.8,1226.3c0.9,1.5,0.8,3.1,1.2,4.9C1121.2,1232.8,1119.6,1228.6,1122.8,1226.3z M1127.5,1216.2c-0.1,0.1-0.1,0.3-0.2,0.4  c0.2-0.5-6.2-3.7-6.6-4.9c2.8,1.5,0.3-0.7,1.7-0.8c0.9,0.5,2.2,0.8,3.5,1.3c-0.1-0.5-0.2-0.8-0.2-0.8  C1134.1,1210.1,1129.6,1216.1,1127.5,1216.2z M1136.1,1202.3c0.4,0.2-4-1.7-3.9-1.6C1136.7,1191.7,1139,1203.6,1136.1,1202.3z   M1141.5,1240.9c0.6,1.3,1.2,2.5,1.7,3.8C1140.2,1246.1,1137.7,1242.4,1141.5,1240.9z M1152.3,1259.4c-0.4-1.4-0.9-2.8-1.3-4.3  C1152.8,1254.4,1154.1,1258.8,1152.3,1259.4z M1155,1248.2c-1-0.4-7.2,0-8-0.7c3.2-0.2-0.2-0.7,1-1.6c1.8,0,4.4-1.2,7-0.9  c0.1,0.9,0.1,1.8,0.2,2.8c0-0.1,0.1-0.2,0.1-0.3c1.3,0.4,2.6,0.9,3.9,1.3C1158.2,1251.7,1154.3,1251.3,1155,1248.2z M1162.1,1247.2  c1.4,0,2.8,0.1,4.2,0.1C1166.2,1250.5,1161.9,1251.2,1162.1,1247.2z M1177.4,1273.9c1-1.1,4.1,1.4,4.4,2.5  C1180.1,1278,1178,1275.3,1177.4,1273.9z M1187.6,1265.5c-2.2,0.6-2.8-2.7-2.7-4.3C1186.3,1260.8,1187.9,1264.4,1187.6,1265.5z   M1208.3,1266.7c-1.5,2-2.2,1-2.3-3.1c-0.4-1.3-0.9-2.6-1.4-3.9C1207.4,1259.1,1208.7,1264.5,1208.3,1266.7z" style="fill: #556934;"></path></svg> <svg y="423.89" viewBox="-0.6299999952316284 -0.04000000283122063 229.55999755859375 15.8100004196167" x="172.72000244140625" height="15.8100004196167" width="229.55999755859375" style="overflow: visible;"><g fill="#AF9270" fill-opacity="1" style=""></g></svg></svg>